<?xml version="1.0" encoding="UTF-8"?>
<!DOCTYPE svg PUBLIC "-//W3C//DTD SVG 1.1//EN" "http://www.w3.org/Graphics/SVG/1.1/DTD/svg11.dtd">
<svg xmlns="http://www.w3.org/2000/svg" version="1.1" width="782px" height="786px" style="shape-rendering:geometricPrecision; text-rendering:geometricPrecision; image-rendering:optimizeQuality; fill-rule:evenodd; clip-rule:evenodd" xmlns:xlink="http://www.w3.org/1999/xlink">
<g><path style="opacity:0.932" fill="#00e8c9" d="M 367.5,0.5 C 504.048,-3.95638 615.214,46.377 701,151.5C 753.721,221.54 780.221,300.707 780.5,389C 780.658,404.547 779.991,420.047 778.5,435.5C 775.833,435.5 773.167,435.5 770.5,435.5C 779.785,313.799 741.118,210.632 654.5,126C 561.832,42.9866 453.832,12.1533 330.5,33.5C 328.032,24.8862 324.699,16.5528 320.5,8.5C 320.709,7.91395 321.043,7.41395 321.5,7C 336.894,4.20538 352.227,2.03871 367.5,0.5 Z"/></g>
<g><path style="opacity:0.931" fill="#00e8c9" d="M 234.5,39.5 C 238.005,41.1767 239.339,43.8433 238.5,47.5C 120.255,105.014 49.088,198.347 25,327.5C 10.0677,436.728 36.4011,534.061 104,619.5C 107.349,622.682 110.516,626.015 113.5,629.5C 107.857,636.977 102.024,644.311 96,651.5C 66.3594,618.211 43.3594,580.878 27,539.5C -18.3418,414.043 -6.00846,295.043 64,182.5C 107.351,118.64 164.184,70.9735 234.5,39.5 Z"/></g>
<g><path style="opacity:0.927" fill="#00e8c9" d="M 360.5,70.5 C 471.344,64.6087 568.011,98.1087 650.5,171C 686.852,204.895 716.018,244.061 738,288.5C 738.667,289.5 738.667,290.5 738,291.5C 735.944,293.319 733.777,293.985 731.5,293.5C 659.662,164.265 549.162,96.9321 400,91.5C 339.74,92.1068 282.906,106.273 229.5,134C 228.5,134.667 227.5,134.667 226.5,134C 220.712,127.376 214.712,120.876 208.5,114.5C 256.052,88.9467 306.718,74.2801 360.5,70.5 Z"/></g>
<g><path style="opacity:0.927" fill="#00e8c9" d="M 405.5,124.5 C 432.25,123.804 458.916,124.804 485.5,127.5C 485.708,129.92 485.374,132.253 484.5,134.5C 361.853,128.629 259.02,170.296 176,259.5C 169.037,254.708 162.204,249.708 155.5,244.5C 154.41,243.609 154.41,242.609 155.5,241.5C 210.606,185.266 276.94,148.766 354.5,132C 371.539,128.748 388.539,126.248 405.5,124.5 Z"/></g>
<g><path style="opacity:0.928" fill="#00e8c9" d="M 129.5,146.5 C 133.939,146.415 136.105,148.415 136,152.5C 70.7204,259.581 60.0537,372.247 104,490.5C 134.883,565.205 184.383,624.538 252.5,668.5C 249.956,677.238 247.289,685.905 244.5,694.5C 195.948,664.448 156.114,625.448 125,577.5C 48.9273,452.284 41.9273,323.284 104,190.5C 111.989,175.391 120.489,160.724 129.5,146.5 Z"/></g>
<g><path style="opacity:0.929" fill="#00e8c9" d="M 639.5,262.5 C 640.833,262.5 642.167,262.5 643.5,262.5C 672.754,372.787 658.588,476.787 601,574.5C 593.245,585.677 585.245,596.677 577,607.5C 574.842,606.174 573.008,604.507 571.5,602.5C 638.525,500.377 653.858,390.71 617.5,273.5C 617.608,272.558 617.941,271.725 618.5,271C 625.8,268.629 632.8,265.796 639.5,262.5 Z"/></g>
<g><path style="opacity:0.928" fill="#00e8c9" d="M 723.5,373.5 C 724.833,373.5 726.167,373.5 727.5,373.5C 723.249,466.834 690.415,548.167 629,617.5C 543.001,709.701 436.501,752.368 309.5,745.5C 309.5,742.833 309.5,740.167 309.5,737.5C 447.253,740.205 556.086,686.205 636,575.5C 676.056,516.619 697.389,451.286 700,379.5C 707.942,377.55 715.775,375.55 723.5,373.5 Z"/></g>
<g><path style="opacity:0.926" fill="#00e8c9" d="M 122.5,443.5 C 169.328,538.798 243.328,603.631 344.5,638C 358.286,642.446 372.286,645.946 386.5,648.5C 385.608,657.516 384.608,666.516 383.5,675.5C 354.535,669.9 326.869,660.4 300.5,647C 214.944,602.62 153.611,536.12 116.5,447.5C 118.397,445.983 120.397,444.65 122.5,443.5 Z"/></g>
<g><path style="opacity:0.931" fill="#00e8c9" d="M 736.5,519.5 C 746.01,520.428 755.343,522.095 764.5,524.5C 727.057,627.413 658.724,702.58 559.5,750C 470.036,789.378 378.37,795.378 284.5,768C 240.648,754.576 200.648,734.076 164.5,706.5C 165.757,704.321 167.257,702.321 169,700.5C 268.244,768.492 376.077,786.658 492.5,755C 612.545,716.114 693.879,637.614 736.5,519.5 Z"/></g>
</svg>
