<?xml version="1.0" encoding="UTF-8"?>
<!DOCTYPE svg PUBLIC "-//W3C//DTD SVG 1.1//EN" "http://www.w3.org/Graphics/SVG/1.1/DTD/svg11.dtd">
<svg xmlns="http://www.w3.org/2000/svg" version="1.1" width="1000px" height="214px" style="shape-rendering:geometricPrecision; text-rendering:geometricPrecision; image-rendering:optimizeQuality; fill-rule:evenodd; clip-rule:evenodd" xmlns:xlink="http://www.w3.org/1999/xlink">
<g><path style="opacity:0.975" fill="#00e8c9" d="M -0.5,-0.5 C 65.5,-0.5 131.5,-0.5 197.5,-0.5C 197.5,15.5 197.5,31.5 197.5,47.5C 147.5,47.5 97.5,47.5 47.5,47.5C 47.8215,59.4139 47.4882,71.2473 46.5,83C 87.1653,83.5 127.832,83.6667 168.5,83.5C 168.5,99.1667 168.5,114.833 168.5,130.5C 128.167,130.5 87.8333,130.5 47.5,130.5C 47.5,158.167 47.5,185.833 47.5,213.5C 31.5,213.5 15.5,213.5 -0.5,213.5C -0.5,142.167 -0.5,70.8333 -0.5,-0.5 Z"/></g>
<g><path style="opacity:0.975" fill="#00e8c9" d="M 213.5,-0.5 C 229.167,-0.5 244.833,-0.5 260.5,-0.5C 260.5,55.1667 260.5,110.833 260.5,166.5C 316.5,166.5 372.5,166.5 428.5,166.5C 428.5,182.167 428.5,197.833 428.5,213.5C 356.833,213.5 285.167,213.5 213.5,213.5C 213.5,142.167 213.5,70.8333 213.5,-0.5 Z"/></g>
<g><path style="opacity:0.973" fill="#00e8c9" d="M 481.5,-0.5 C 527.5,-0.5 573.5,-0.5 619.5,-0.5C 638.532,4.02752 651.032,15.6942 657,34.5C 657.667,82.8333 657.667,131.167 657,179.5C 651.805,195.858 641.305,207.192 625.5,213.5C 575.5,213.5 525.5,213.5 475.5,213.5C 458.991,207.821 448.491,196.488 444,179.5C 443.333,131.167 443.333,82.8333 444,34.5C 449.696,15.4238 462.196,3.75717 481.5,-0.5 Z M 490.5,47.5 C 530.167,47.5 569.833,47.5 609.5,47.5C 609.5,87.1667 609.5,126.833 609.5,166.5C 569.833,166.5 530.167,166.5 490.5,166.5C 490.5,126.833 490.5,87.1667 490.5,47.5 Z"/></g>
<g><path style="opacity:0.971" fill="#00e8c9" d="M 672.5,-0.5 C 689.167,-0.5 705.833,-0.5 722.5,-0.5C 738.262,41.3657 753.762,83.3657 769,125.5C 784.473,83.5791 799.64,41.5791 814.5,-0.5C 829.167,-0.5 843.833,-0.5 858.5,-0.5C 873.449,41.3939 888.949,83.0606 905,124.5C 920.272,82.848 935.439,41.1814 950.5,-0.5C 966.833,-0.5 983.167,-0.5 999.5,-0.5C 999.5,1.16667 999.5,2.83333 999.5,4.5C 973.792,73.9506 948.459,143.617 923.5,213.5C 910.833,213.5 898.167,213.5 885.5,213.5C 869.754,168.926 853.421,124.593 836.5,80.5C 819.579,124.593 803.246,168.926 787.5,213.5C 775.167,213.5 762.833,213.5 750.5,213.5C 724.305,142.248 698.305,70.9148 672.5,-0.5 Z"/></g>
</svg>
