<?xml version="1.0" encoding="UTF-8"?>
<!DOCTYPE svg PUBLIC "-//W3C//DTD SVG 1.1//EN" "http://www.w3.org/Graphics/SVG/1.1/DTD/svg11.dtd">
<svg xmlns="http://www.w3.org/2000/svg" version="1.1" width="2200px" height="39px" style="shape-rendering:geometricPrecision; text-rendering:geometricPrecision; image-rendering:optimizeQuality; fill-rule:evenodd; clip-rule:evenodd" xmlns:xlink="http://www.w3.org/1999/xlink">
<g><path style="opacity:0.641" fill="#000403" d="M 725.5,-0.5 C 968.5,-0.5 1211.5,-0.5 1454.5,-0.5C 1630.35,0.922415 1806.35,3.42242 1982.5,7C 2051.59,7.98203 2120.59,10.982 2189.5,16C 2193,16.3033 2196.34,17.1366 2199.5,18.5C 2199.5,19.1667 2199.5,19.8333 2199.5,20.5C 2181.33,23.6559 2163,25.4892 2144.5,26C 2097.19,28.3325 2049.86,29.9991 2002.5,31C 1836.68,34.5373 1671.02,37.0373 1505.5,38.5C 1241.5,38.5 977.5,38.5 713.5,38.5C 545.316,37.0189 376.983,34.5189 208.5,31C 159.478,29.9754 110.478,28.3087 61.5,26C 40.7107,25.3367 20.044,23.5033 -0.5,20.5C -0.5,19.5 -0.5,18.5 -0.5,17.5C 19.0314,14.4529 38.6981,12.6195 58.5,12C 107.148,9.79631 155.814,8.12964 204.5,7C 378.315,3.40433 551.982,0.904334 725.5,-0.5 Z"/></g>
<g><path style="opacity:1" fill="#011a17" d="M 1377.5,2.5 C 1373.83,2.5 1370.17,2.5 1366.5,2.5C 1147.83,2.18548 929.161,2.51882 710.5,3.5C 693.833,3.5 677.167,3.5 660.5,3.5C 660.5,3.16667 660.5,2.83333 660.5,2.5C 899.663,1.18829 1138.66,1.18829 1377.5,2.5 Z"/></g>
<g><path style="opacity:1" fill="#011613" d="M 660.5,2.5 C 660.5,2.83333 660.5,3.16667 660.5,3.5C 614.5,3.77779 568.5,4.11112 522.5,4.5C 508.833,4.5 495.167,4.5 481.5,4.5C 540.995,3.13225 600.662,2.46558 660.5,2.5 Z"/></g>
<g><path style="opacity:1" fill="#012d27" d="M 1366.5,2.5 C 1395.83,3.16667 1425.17,3.83333 1454.5,4.5C 1207.5,3.26635 960.499,3.26635 713.5,4.5C 712.5,4.5 711.5,4.5 710.5,4.5C 710.5,4.16667 710.5,3.83333 710.5,3.5C 929.161,2.51882 1147.83,2.18548 1366.5,2.5 Z"/></g>
<g><path style="opacity:1" fill="#012520" d="M 1366.5,2.5 C 1370.17,2.5 1373.83,2.5 1377.5,2.5C 1403.5,2.5 1429.5,2.5 1455.5,2.5C 1494.5,3.16667 1533.5,3.83333 1572.5,4.5C 1539.17,4.5 1505.83,4.5 1472.5,4.5C 1466.5,4.5 1460.5,4.5 1454.5,4.5C 1425.17,3.83333 1395.83,3.16667 1366.5,2.5 Z"/></g>
<g><path style="opacity:1" fill="#011916" d="M 1455.5,2.5 C 1512.01,2.12241 1568.34,2.78908 1624.5,4.5C 1611.5,4.5 1598.5,4.5 1585.5,4.5C 1581.17,4.5 1576.83,4.5 1572.5,4.5C 1533.5,3.83333 1494.5,3.16667 1455.5,2.5 Z"/></g>
<g><path style="opacity:1" fill="#012520" d="M 660.5,3.5 C 677.167,3.5 693.833,3.5 710.5,3.5C 710.5,3.83333 710.5,4.16667 710.5,4.5C 647.832,4.66051 585.166,4.99384 522.5,5.5C 522.5,5.16667 522.5,4.83333 522.5,4.5C 568.5,4.11112 614.5,3.77779 660.5,3.5 Z"/></g>
<g><path style="opacity:1" fill="#014038" d="M 1454.5,4.5 C 1460.5,4.5 1466.5,4.5 1472.5,4.5C 1490.33,5.49678 1508.33,5.83012 1526.5,5.5C 1526.5,5.83333 1526.5,6.16667 1526.5,6.5C 1438.17,5.91719 1349.83,5.58385 1261.5,5.5C 1134.83,5.5 1008.17,5.5 881.5,5.5C 825.5,5.5 769.5,5.5 713.5,5.5C 713.5,5.16667 713.5,4.83333 713.5,4.5C 960.499,3.26635 1207.5,3.26635 1454.5,4.5 Z"/></g>
<g><path style="opacity:1" fill="#011a17" d="M 481.5,4.5 C 495.167,4.5 508.833,4.5 522.5,4.5C 522.5,4.83333 522.5,5.16667 522.5,5.5C 522.167,5.5 521.833,5.5 521.5,5.5C 471.158,5.62659 420.825,6.29325 370.5,7.5C 365.167,7.5 359.833,7.5 354.5,7.5C 361.833,6.83333 369.167,6.16667 376.5,5.5C 411.502,5.37093 446.502,5.03759 481.5,4.5 Z"/></g>
<g><path style="opacity:1" fill="#01322b" d="M 710.5,4.5 C 711.5,4.5 712.5,4.5 713.5,4.5C 713.5,4.83333 713.5,5.16667 713.5,5.5C 710.5,5.5 707.5,5.5 704.5,5.5C 628.164,5.88742 551.831,6.55409 475.5,7.5C 469.167,7.5 462.833,7.5 456.5,7.5C 478.167,6.83333 499.833,6.16667 521.5,5.5C 521.833,5.5 522.167,5.5 522.5,5.5C 585.166,4.99384 647.832,4.66051 710.5,4.5 Z"/></g>
<g><path style="opacity:1" fill="#01322b" d="M 1472.5,4.5 C 1505.83,4.5 1539.17,4.5 1572.5,4.5C 1576.83,4.5 1581.17,4.5 1585.5,4.5C 1608.17,5.16667 1630.83,5.83333 1653.5,6.5C 1640.83,6.5 1628.17,6.5 1615.5,6.5C 1585.83,6.06947 1556.17,5.73614 1526.5,5.5C 1508.33,5.83012 1490.33,5.49678 1472.5,4.5 Z"/></g>
<g><path style="opacity:1" fill="#012621" d="M 1585.5,4.5 C 1598.5,4.5 1611.5,4.5 1624.5,4.5C 1637.17,4.5 1649.83,4.5 1662.5,4.5C 1671.5,5.16667 1680.5,5.83333 1689.5,6.5C 1688.17,6.5 1686.83,6.5 1685.5,6.5C 1674.83,6.5 1664.17,6.5 1653.5,6.5C 1630.83,5.83333 1608.17,5.16667 1585.5,4.5 Z"/></g>
<g><path style="opacity:1" fill="#011f1b" d="M 1662.5,4.5 C 1678.5,4.5 1694.5,4.5 1710.5,4.5C 1738,5.35014 1765.67,6.01681 1793.5,6.5C 1793.5,6.83333 1793.5,7.16667 1793.5,7.5C 1758.84,6.95166 1724.17,6.61832 1689.5,6.5C 1680.5,5.83333 1671.5,5.16667 1662.5,4.5 Z"/></g>
<g><path style="opacity:1" fill="#011311" d="M 1710.5,4.5 C 1743.5,4.48514 1776.5,4.81848 1809.5,5.5C 1809.5,5.83333 1809.5,6.16667 1809.5,6.5C 1804.17,6.5 1798.83,6.5 1793.5,6.5C 1765.67,6.01681 1738,5.35014 1710.5,4.5 Z"/></g>
<g><path style="opacity:1" fill="#012621" d="M 521.5,5.5 C 499.833,6.16667 478.167,6.83333 456.5,7.5C 433.158,7.38068 409.825,7.71401 386.5,8.5C 381.167,8.5 375.833,8.5 370.5,8.5C 370.5,8.16667 370.5,7.83333 370.5,7.5C 420.825,6.29325 471.158,5.62659 521.5,5.5 Z"/></g>
<g><path style="opacity:1" fill="#013f37" d="M 704.5,5.5 C 673.973,6.18903 643.307,6.8557 612.5,7.5C 571.325,7.37487 530.325,8.04154 489.5,9.5C 483.167,9.5 476.833,9.5 470.5,9.5C 455.833,9.5 441.167,9.5 426.5,9.5C 442.833,8.83333 459.167,8.16667 475.5,7.5C 551.831,6.55409 628.164,5.88742 704.5,5.5 Z"/></g>
<g><path style="opacity:1" fill="#015146" d="M 704.5,5.5 C 707.5,5.5 710.5,5.5 713.5,5.5C 769.5,5.5 825.5,5.5 881.5,5.5C 844.5,6.16667 807.5,6.83333 770.5,7.5C 766.833,7.5 763.167,7.5 759.5,7.5C 719.162,7.39635 678.829,7.72969 638.5,8.5C 629.833,8.5 621.167,8.5 612.5,8.5C 612.5,8.16667 612.5,7.83333 612.5,7.5C 643.307,6.8557 673.973,6.18903 704.5,5.5 Z"/></g>
<g><path style="opacity:1" fill="#015d51" d="M 881.5,5.5 C 1008.17,5.5 1134.83,5.5 1261.5,5.5C 1261.5,5.83333 1261.5,6.16667 1261.5,6.5C 1138.67,6.16712 1016,6.50046 893.5,7.5C 887.833,7.5 882.167,7.5 876.5,7.5C 841.167,7.5 805.833,7.5 770.5,7.5C 807.5,6.83333 844.5,6.16667 881.5,5.5 Z"/></g>
<g><path style="opacity:1" fill="#015146" d="M 1261.5,6.5 C 1261.5,6.16667 1261.5,5.83333 1261.5,5.5C 1349.83,5.58385 1438.17,5.91719 1526.5,6.5C 1543.13,7.45668 1559.8,7.79001 1576.5,7.5C 1576.5,7.83333 1576.5,8.16667 1576.5,8.5C 1569.17,8.5 1561.83,8.5 1554.5,8.5C 1467.84,7.25913 1381.17,6.59246 1294.5,6.5C 1283.5,6.5 1272.5,6.5 1261.5,6.5 Z"/></g>
<g><path style="opacity:1" fill="#014239" d="M 1526.5,6.5 C 1526.5,6.16667 1526.5,5.83333 1526.5,5.5C 1556.17,5.73614 1585.83,6.06947 1615.5,6.5C 1647.66,7.55801 1680,8.22468 1712.5,8.5C 1726.84,8.69462 1741.17,9.02796 1755.5,9.5C 1755.5,9.83333 1755.5,10.1667 1755.5,10.5C 1695.83,9.48907 1636.17,8.48907 1576.5,7.5C 1559.8,7.79001 1543.13,7.45668 1526.5,6.5 Z"/></g>
<g><path style="opacity:1" fill="#01493f" d="M 612.5,7.5 C 612.5,7.83333 612.5,8.16667 612.5,8.5C 583.494,8.43558 554.494,8.76892 525.5,9.5C 513.5,9.5 501.5,9.5 489.5,9.5C 530.325,8.04154 571.325,7.37487 612.5,7.5 Z"/></g>
<g><path style="opacity:1" fill="#016b5d" d="M 893.5,7.5 C 1016,6.50046 1138.67,6.16712 1261.5,6.5C 1272.5,6.5 1283.5,6.5 1294.5,6.5C 1321.17,7.16667 1347.83,7.83333 1374.5,8.5C 1214.17,7.6772 1053.83,7.34386 893.5,7.5 Z"/></g>
<g><path style="opacity:1" fill="#016255" d="M 1294.5,6.5 C 1381.17,6.59246 1467.84,7.25913 1554.5,8.5C 1554.5,8.83333 1554.5,9.16667 1554.5,9.5C 1549.5,9.5 1544.5,9.5 1539.5,9.5C 1495.83,9.11765 1452.17,8.78432 1408.5,8.5C 1397.17,8.5 1385.83,8.5 1374.5,8.5C 1347.83,7.83333 1321.17,7.16667 1294.5,6.5 Z"/></g>
<g><path style="opacity:1" fill="#013932" d="M 1615.5,6.5 C 1628.17,6.5 1640.83,6.5 1653.5,6.5C 1664.17,6.5 1674.83,6.5 1685.5,6.5C 1694.32,7.4933 1703.32,7.82664 1712.5,7.5C 1712.5,7.83333 1712.5,8.16667 1712.5,8.5C 1680,8.22468 1647.66,7.55801 1615.5,6.5 Z"/></g>
<g><path style="opacity:1" fill="#012c26" d="M 1685.5,6.5 C 1686.83,6.5 1688.17,6.5 1689.5,6.5C 1724.17,6.61832 1758.84,6.95166 1793.5,7.5C 1813.67,7.6947 1833.67,8.36137 1853.5,9.5C 1839.17,9.5 1824.83,9.5 1810.5,9.5C 1804.5,9.5 1798.5,9.5 1792.5,9.5C 1766.01,8.34381 1739.34,7.67715 1712.5,7.5C 1703.32,7.82664 1694.32,7.4933 1685.5,6.5 Z"/></g>
<g><path style="opacity:1" fill="#011e1a" d="M 1793.5,7.5 C 1793.5,7.16667 1793.5,6.83333 1793.5,6.5C 1798.83,6.5 1804.17,6.5 1809.5,6.5C 1859.01,7.32145 1908.34,8.65478 1957.5,10.5C 1949.83,10.5 1942.17,10.5 1934.5,10.5C 1907.5,10.2143 1880.5,9.88093 1853.5,9.5C 1833.67,8.36137 1813.67,7.6947 1793.5,7.5 Z"/></g>
<g><path style="opacity:1" fill="#01100e" d="M 376.5,5.5 C 369.167,6.16667 361.833,6.83333 354.5,7.5C 313.652,7.66678 272.986,8.66678 232.5,10.5C 227.5,10.5 222.5,10.5 217.5,10.5C 197.83,10.692 178.164,11.0253 158.5,11.5C 148.167,11.5 137.833,11.5 127.5,11.5C 210.306,8.10903 293.306,6.10903 376.5,5.5 Z"/></g>
<g><path style="opacity:1" fill="#011f1b" d="M 354.5,7.5 C 359.833,7.5 365.167,7.5 370.5,7.5C 370.5,7.83333 370.5,8.16667 370.5,8.5C 342.321,8.41482 314.321,9.08148 286.5,10.5C 284.833,10.5 283.167,10.5 281.5,10.5C 265.167,10.5 248.833,10.5 232.5,10.5C 272.986,8.66678 313.652,7.66678 354.5,7.5 Z"/></g>
<g><path style="opacity:1" fill="#01332c" d="M 456.5,7.5 C 462.833,7.5 469.167,7.5 475.5,7.5C 459.167,8.16667 442.833,8.83333 426.5,9.5C 421.5,9.5 416.5,9.5 411.5,9.5C 403.167,9.5 394.833,9.5 386.5,9.5C 386.5,9.16667 386.5,8.83333 386.5,8.5C 409.825,7.71401 433.158,7.38068 456.5,7.5 Z"/></g>
<g><path style="opacity:1" fill="#015f53" d="M 759.5,7.5 C 724.663,8.29483 689.663,8.9615 654.5,9.5C 649.167,9.5 643.833,9.5 638.5,9.5C 638.5,9.16667 638.5,8.83333 638.5,8.5C 678.829,7.72969 719.162,7.39635 759.5,7.5 Z"/></g>
<g><path style="opacity:1" fill="#016c5e" d="M 759.5,7.5 C 763.167,7.5 766.833,7.5 770.5,7.5C 805.833,7.5 841.167,7.5 876.5,7.5C 844.5,8.16667 812.5,8.83333 780.5,9.5C 739.162,9.42889 697.829,9.76222 656.5,10.5C 655.833,10.5 655.167,10.5 654.5,10.5C 654.5,10.1667 654.5,9.83333 654.5,9.5C 689.663,8.9615 724.663,8.29483 759.5,7.5 Z"/></g>
<g><path style="opacity:1" fill="#017a69" d="M 876.5,7.5 C 882.167,7.5 887.833,7.5 893.5,7.5C 1053.83,7.34386 1214.17,7.6772 1374.5,8.5C 1385.83,8.5 1397.17,8.5 1408.5,8.5C 1408.5,8.83333 1408.5,9.16667 1408.5,9.5C 1381.17,9.5 1353.83,9.5 1326.5,9.5C 1155.83,9.5 985.167,9.5 814.5,9.5C 803.167,9.5 791.833,9.5 780.5,9.5C 812.5,8.83333 844.5,8.16667 876.5,7.5 Z"/></g>
<g><path style="opacity:1" fill="#01362f" d="M 1712.5,8.5 C 1712.5,8.16667 1712.5,7.83333 1712.5,7.5C 1739.34,7.67715 1766.01,8.34381 1792.5,9.5C 1780.17,9.5 1767.83,9.5 1755.5,9.5C 1741.17,9.02796 1726.84,8.69462 1712.5,8.5 Z"/></g>
<g><path style="opacity:1" fill="#012b25" d="M 370.5,8.5 C 375.833,8.5 381.167,8.5 386.5,8.5C 386.5,8.83333 386.5,9.16667 386.5,9.5C 362.497,9.64294 338.497,9.97627 314.5,10.5C 305.167,10.5 295.833,10.5 286.5,10.5C 314.321,9.08148 342.321,8.41482 370.5,8.5 Z"/></g>
<g><path style="opacity:1" fill="#01584c" d="M 612.5,8.5 C 621.167,8.5 629.833,8.5 638.5,8.5C 638.5,8.83333 638.5,9.16667 638.5,9.5C 609.16,9.37573 579.826,9.70907 550.5,10.5C 542.167,10.5 533.833,10.5 525.5,10.5C 525.5,10.1667 525.5,9.83333 525.5,9.5C 554.494,8.76892 583.494,8.43558 612.5,8.5 Z"/></g>
<g><path style="opacity:1" fill="#017162" d="M 1408.5,9.5 C 1408.5,9.16667 1408.5,8.83333 1408.5,8.5C 1452.17,8.78432 1495.83,9.11765 1539.5,9.5C 1547.5,10.1667 1555.5,10.8333 1563.5,11.5C 1543.17,11.1042 1522.83,10.7709 1502.5,10.5C 1476.83,10.1496 1451.17,9.81625 1425.5,9.5C 1419.83,9.5 1414.17,9.5 1408.5,9.5 Z"/></g>
<g><path style="opacity:1" fill="#015f52" d="M 1554.5,9.5 C 1554.5,9.16667 1554.5,8.83333 1554.5,8.5C 1561.83,8.5 1569.17,8.5 1576.5,8.5C 1589.82,9.17858 1603.16,9.51192 1616.5,9.5C 1616.5,9.83333 1616.5,10.1667 1616.5,10.5C 1595.83,10.44 1575.16,10.1067 1554.5,9.5 Z"/></g>
<g><path style="opacity:1" fill="#013d35" d="M 1755.5,10.5 C 1755.5,10.1667 1755.5,9.83333 1755.5,9.5C 1767.83,9.5 1780.17,9.5 1792.5,9.5C 1798.5,9.5 1804.5,9.5 1810.5,9.5C 1823.83,10.1667 1837.17,10.8333 1850.5,11.5C 1833.17,11.5 1815.83,11.5 1798.5,11.5C 1784.19,10.5884 1769.86,10.2551 1755.5,10.5 Z"/></g>
<g><path style="opacity:1" fill="#012e28" d="M 281.5,11.5 C 281.5,11.1667 281.5,10.8333 281.5,10.5C 283.167,10.5 284.833,10.5 286.5,10.5C 295.833,10.5 305.167,10.5 314.5,10.5C 313.081,11.4511 311.415,11.7845 309.5,11.5C 299.957,11.5674 290.624,11.5674 281.5,11.5 Z"/></g>
<g><path style="opacity:1" fill="#013831" d="M 386.5,9.5 C 394.833,9.5 403.167,9.5 411.5,9.5C 396.833,10.1667 382.167,10.8333 367.5,11.5C 366.833,11.5 366.167,11.5 365.5,11.5C 347.439,11.3298 329.439,11.9965 311.5,13.5C 311.158,12.6618 310.492,12.3284 309.5,12.5C 309.5,12.1667 309.5,11.8333 309.5,11.5C 311.415,11.7845 313.081,11.4511 314.5,10.5C 338.497,9.97627 362.497,9.64294 386.5,9.5 Z"/></g>
<g><path style="opacity:1" fill="#01443b" d="M 411.5,9.5 C 416.5,9.5 421.5,9.5 426.5,9.5C 441.167,9.5 455.833,9.5 470.5,9.5C 451.666,10.3817 432.666,11.0484 413.5,11.5C 398.167,11.5 382.833,11.5 367.5,11.5C 382.167,10.8333 396.833,10.1667 411.5,9.5 Z"/></g>
<g><path style="opacity:1" fill="#016558" d="M 638.5,9.5 C 643.833,9.5 649.167,9.5 654.5,9.5C 654.5,9.83333 654.5,10.1667 654.5,10.5C 625.823,10.2855 597.156,10.6189 568.5,11.5C 562.5,11.5 556.5,11.5 550.5,11.5C 550.5,11.1667 550.5,10.8333 550.5,10.5C 579.826,9.70907 609.16,9.37573 638.5,9.5 Z"/></g>
<g><path style="opacity:1" fill="#017d6c" d="M 780.5,9.5 C 791.833,9.5 803.167,9.5 814.5,9.5C 812.393,10.4682 810.059,10.8016 807.5,10.5C 762.498,10.6539 717.498,10.9872 672.5,11.5C 667.167,11.5 661.833,11.5 656.5,11.5C 656.5,11.1667 656.5,10.8333 656.5,10.5C 697.829,9.76222 739.162,9.42889 780.5,9.5 Z"/></g>
<g><path style="opacity:1" fill="#01917d" d="M 814.5,9.5 C 985.167,9.5 1155.83,9.5 1326.5,9.5C 1326.5,9.83333 1326.5,10.1667 1326.5,10.5C 1157.16,10.21 987.83,10.5433 818.5,11.5C 814.833,11.5 811.167,11.5 807.5,11.5C 807.5,11.1667 807.5,10.8333 807.5,10.5C 810.059,10.8016 812.393,10.4682 814.5,9.5 Z"/></g>
<g><path style="opacity:1" fill="#018473" d="M 1326.5,10.5 C 1326.5,10.1667 1326.5,9.83333 1326.5,9.5C 1353.83,9.5 1381.17,9.5 1408.5,9.5C 1414.17,9.5 1419.83,9.5 1425.5,9.5C 1437.5,10.1667 1449.5,10.8333 1461.5,11.5C 1460.17,11.5 1458.83,11.5 1457.5,11.5C 1418.17,10.7589 1378.84,10.4255 1339.5,10.5C 1335.17,10.5 1330.83,10.5 1326.5,10.5 Z"/></g>
<g><path style="opacity:1" fill="#017e6d" d="M 1425.5,9.5 C 1451.17,9.81625 1476.83,10.1496 1502.5,10.5C 1502.5,10.8333 1502.5,11.1667 1502.5,11.5C 1488.83,11.5 1475.17,11.5 1461.5,11.5C 1449.5,10.8333 1437.5,10.1667 1425.5,9.5 Z"/></g>
<g><path style="opacity:1" fill="#016b5c" d="M 1539.5,9.5 C 1544.5,9.5 1549.5,9.5 1554.5,9.5C 1575.16,10.1067 1595.83,10.44 1616.5,10.5C 1625.02,10.1739 1633.35,10.5073 1641.5,11.5C 1631.5,11.5 1621.5,11.5 1611.5,11.5C 1603.17,11.5 1594.83,11.5 1586.5,11.5C 1578.83,11.5 1571.17,11.5 1563.5,11.5C 1555.5,10.8333 1547.5,10.1667 1539.5,9.5 Z"/></g>
<g><path style="opacity:1" fill="#015b4f" d="M 1616.5,10.5 C 1616.5,10.1667 1616.5,9.83333 1616.5,9.5C 1644.02,9.28538 1671.35,9.95205 1698.5,11.5C 1683.83,11.5 1669.17,11.5 1654.5,11.5C 1650.17,11.5 1645.83,11.5 1641.5,11.5C 1633.35,10.5073 1625.02,10.1739 1616.5,10.5 Z"/></g>
<g><path style="opacity:1" fill="#011b17" d="M 1961.5,10.5 C 1981.5,10.7501 2001.5,11.0834 2021.5,11.5C 2021.5,11.8333 2021.5,12.1667 2021.5,12.5C 2011.17,12.5 2000.83,12.5 1990.5,12.5C 1980.69,11.9089 1971.02,11.2423 1961.5,10.5 Z"/></g>
<g><path style="opacity:1" fill="#011a16" d="M 217.5,10.5 C 194.341,12.3581 171.008,13.6914 147.5,14.5C 143.5,14.5 139.5,14.5 135.5,14.5C 140.5,13.8333 145.5,13.1667 150.5,12.5C 153.385,12.8064 156.052,12.4731 158.5,11.5C 178.164,11.0253 197.83,10.692 217.5,10.5 Z"/></g>
<g><path style="opacity:1" fill="#012722" d="M 252.5,11.5 C 234.774,12.4147 216.941,13.748 199,15.5C 197.699,15.0398 196.366,14.7065 195,14.5C 189.48,15.6282 183.98,16.6282 178.5,17.5C 173.775,16.6699 169.108,17.1699 164.5,19C 169.108,20.8301 173.775,21.3301 178.5,20.5C 181.263,22.6813 184.263,23.0146 187.5,21.5C 189.336,22.0276 191.003,22.6942 192.5,23.5C 186.973,24.7597 181.473,24.4264 176,22.5C 171.931,24.0934 168.098,23.76 164.5,21.5C 161.679,22.8 159.012,22.4667 156.5,20.5C 154.902,21.4847 153.235,21.6514 151.5,21C 152.696,20.3457 152.696,19.8457 151.5,19.5C 147.793,20.8062 144.126,20.6395 140.5,19C 145.734,16.8476 151.067,16.3476 156.5,17.5C 159.012,15.5333 161.679,15.2 164.5,16.5C 168.688,14.331 173.022,13.9977 177.5,15.5C 179.444,14.8108 181.444,14.3108 183.5,14C 206.488,12.7759 229.488,11.9425 252.5,11.5 Z"/></g>
<g><path style="opacity:1" fill="#012e28" d="M 252.5,11.5 C 261.833,11.5 271.167,11.5 280.5,11.5C 261.263,12.3643 241.93,13.6976 222.5,15.5C 221.833,15.1667 221.167,14.8333 220.5,14.5C 217.017,15.2068 213.517,15.8734 210,16.5C 207.146,15.7416 204.313,16.0749 201.5,17.5C 199.13,15.9019 197.464,16.4019 196.5,19C 197.259,21.6273 198.759,22.1273 201,20.5C 203.642,21.9587 206.309,22.292 209,21.5C 212.333,22.1667 215.667,22.8333 219,23.5C 219.873,23.2645 220.707,22.9312 221.5,22.5C 240.745,24.1154 259.745,25.4487 278.5,26.5C 257.117,26.4214 235.95,25.4214 215,23.5C 209.635,24.3964 203.968,24.0631 198,22.5C 196.234,23.2335 194.401,23.5668 192.5,23.5C 191.003,22.6942 189.336,22.0276 187.5,21.5C 184.263,23.0146 181.263,22.6813 178.5,20.5C 173.775,21.3301 169.108,20.8301 164.5,19C 169.108,17.1699 173.775,16.6699 178.5,17.5C 183.98,16.6282 189.48,15.6282 195,14.5C 196.366,14.7065 197.699,15.0398 199,15.5C 216.941,13.748 234.774,12.4147 252.5,11.5 Z"/></g>
<g><path style="opacity:1" fill="#01342d" d="M 280.5,11.5 C 280.833,11.5 281.167,11.5 281.5,11.5C 290.624,11.5674 299.957,11.5674 309.5,11.5C 309.5,11.8333 309.5,12.1667 309.5,12.5C 309.167,12.5 308.833,12.5 308.5,12.5C 294.238,12.3509 280.071,13.0176 266,14.5C 265.586,14.0426 265.086,13.7093 264.5,13.5C 248.734,14.4437 233.067,16.2771 217.5,19C 220.101,19.9203 222.768,20.587 225.5,21C 252.166,23.5185 279.166,25.0185 306.5,25.5C 308.379,26.3414 310.379,26.6747 312.5,26.5C 312.5,26.8333 312.5,27.1667 312.5,27.5C 301.086,27.8106 289.752,27.4773 278.5,26.5C 259.745,25.4487 240.745,24.1154 221.5,22.5C 220.707,22.9312 219.873,23.2645 219,23.5C 215.667,22.8333 212.333,22.1667 209,21.5C 206.309,22.292 203.642,21.9587 201,20.5C 198.759,22.1273 197.259,21.6273 196.5,19C 197.464,16.4019 199.13,15.9019 201.5,17.5C 204.313,16.0749 207.146,15.7416 210,16.5C 213.517,15.8734 217.017,15.2068 220.5,14.5C 221.167,14.8333 221.833,15.1667 222.5,15.5C 241.93,13.6976 261.263,12.3643 280.5,11.5 Z"/></g>
<g><path style="opacity:1" fill="#016a5c" d="M 550.5,11.5 C 556.5,11.5 562.5,11.5 568.5,11.5C 568.5,11.8333 568.5,12.1667 568.5,12.5C 567.5,12.5 566.5,12.5 565.5,12.5C 536.468,12.7319 507.468,13.3986 478.5,14.5C 477.081,13.5489 475.415,13.2155 473.5,13.5C 498.988,12.121 524.655,11.4543 550.5,11.5 Z"/></g>
<g><path style="opacity:1" fill="#017363" d="M 654.5,10.5 C 655.167,10.5 655.833,10.5 656.5,10.5C 656.5,10.8333 656.5,11.1667 656.5,11.5C 627.164,11.6734 597.831,12.0067 568.5,12.5C 568.5,12.1667 568.5,11.8333 568.5,11.5C 597.156,10.6189 625.823,10.2855 654.5,10.5 Z"/></g>
<g><path style="opacity:1" fill="#01a08a" d="M 1326.5,10.5 C 1330.83,10.5 1335.17,10.5 1339.5,10.5C 1339.5,10.8333 1339.5,11.1667 1339.5,11.5C 1316.83,11.5 1294.17,11.5 1271.5,11.5C 1154.5,11.3333 1037.5,11.5 920.5,12C 887.997,12.1676 855.664,12.6676 823.5,13.5C 814.5,13.5 805.5,13.5 796.5,13.5C 781.833,13.5 767.167,13.5 752.5,13.5C 774.5,12.8333 796.5,12.1667 818.5,11.5C 987.83,10.5433 1157.16,10.21 1326.5,10.5 Z"/></g>
<g><path style="opacity:1" fill="#01a993" d="M 1271.5,11.5 C 1329.34,12.3499 1387.34,13.3499 1445.5,14.5C 1440.69,15.4872 1435.69,15.8205 1430.5,15.5C 1399.78,14.9677 1368.78,14.6344 1337.5,14.5C 1336.83,14.5 1336.17,14.5 1335.5,14.5C 1256.01,12.971 1176.34,12.3043 1096.5,12.5C 1017.17,12.6361 937.832,12.9694 858.5,13.5C 846.833,13.5 835.167,13.5 823.5,13.5C 855.664,12.6676 887.997,12.1676 920.5,12C 1037.5,11.5 1154.5,11.3333 1271.5,11.5 Z"/></g>
<g><path style="opacity:1" fill="#01907d" d="M 1339.5,11.5 C 1339.5,11.1667 1339.5,10.8333 1339.5,10.5C 1378.84,10.4255 1418.17,10.7589 1457.5,11.5C 1457.5,11.8333 1457.5,12.1667 1457.5,12.5C 1418.17,11.7699 1378.84,11.4366 1339.5,11.5 Z"/></g>
<g><path style="opacity:1" fill="#017e6d" d="M 1502.5,11.5 C 1502.5,11.1667 1502.5,10.8333 1502.5,10.5C 1522.83,10.7709 1543.17,11.1042 1563.5,11.5C 1571.17,11.5 1578.83,11.5 1586.5,11.5C 1591.5,12.1667 1596.5,12.8333 1601.5,13.5C 1581.16,13.2676 1560.83,12.9343 1540.5,12.5C 1527.83,12.2332 1515.16,11.8999 1502.5,11.5 Z"/></g>
<g><path style="opacity:1" fill="#014f45" d="M 1576.5,8.5 C 1576.5,8.16667 1576.5,7.83333 1576.5,7.5C 1636.17,8.48907 1695.83,9.48907 1755.5,10.5C 1769.86,10.2551 1784.19,10.5884 1798.5,11.5C 1808.32,12.494 1818.32,12.8274 1828.5,12.5C 1828.5,12.8333 1828.5,13.1667 1828.5,13.5C 1819.5,13.5 1810.5,13.5 1801.5,13.5C 1800.88,13.6107 1800.38,13.944 1800,14.5C 1781.59,13.0694 1763.09,12.4028 1744.5,12.5C 1729.18,11.6408 1713.85,11.3075 1698.5,11.5C 1671.35,9.95205 1644.02,9.28538 1616.5,9.5C 1603.16,9.51192 1589.82,9.17858 1576.5,8.5 Z"/></g>
<g><path style="opacity:1" fill="#012e28" d="M 1810.5,9.5 C 1824.83,9.5 1839.17,9.5 1853.5,9.5C 1880.5,9.88093 1907.5,10.2143 1934.5,10.5C 1935.95,11.3019 1937.62,11.8019 1939.5,12C 1958.4,12.4269 1977.23,13.5936 1996,15.5C 2000.24,14.4426 2004.4,14.7759 2008.5,16.5C 2011.99,15.0802 2015.32,15.4135 2018.5,17.5C 2023.56,16.6721 2028.56,17.1721 2033.5,19C 2030.06,21.2545 2026.4,21.7545 2022.5,20.5C 2020.42,22.6044 2018.08,22.9377 2015.5,21.5C 2013.66,22.0276 2012,22.6942 2010.5,23.5C 2004.67,22.6367 1998.84,22.97 1993,24.5C 1985.17,24.7108 1977.34,24.7108 1969.5,24.5C 1977.13,23.186 1984.79,22.186 1992.5,21.5C 1995.11,22.5888 1997.61,22.2554 2000,20.5C 2003.45,22.1247 2004.12,21.458 2002,18.5C 2000.2,16.5809 1998.2,16.2476 1996,17.5C 1992.54,15.9151 1989.04,15.5818 1985.5,16.5C 1976.46,15.6857 1967.29,14.6857 1958,13.5C 1957.23,13.6448 1956.56,13.9781 1956,14.5C 1941.06,13.2447 1926.06,12.2447 1911,11.5C 1910.1,11.7432 1909.26,12.0766 1908.5,12.5C 1900.02,11.507 1891.35,11.1736 1882.5,11.5C 1871.83,11.5 1861.17,11.5 1850.5,11.5C 1837.17,10.8333 1823.83,10.1667 1810.5,9.5 Z"/></g>
<g><path style="opacity:1" fill="#010908" d="M 122.5,11.5 C 102.319,12.9506 81.9859,14.4506 61.5,16C 45.5,18 45.5,20 61.5,22C 81.651,23.5652 101.651,25.0652 121.5,26.5C 97.8037,25.9984 74.137,24.8317 50.5,23C 18.133,20.5944 17.7997,17.9277 49.5,15C 73.8048,13.1682 98.1381,12.0016 122.5,11.5 Z"/></g>
<g><path style="opacity:1" fill="#01100e" d="M 122.5,11.5 C 124.167,11.5 125.833,11.5 127.5,11.5C 137.833,11.5 148.167,11.5 158.5,11.5C 156.052,12.4731 153.385,12.8064 150.5,12.5C 142.16,12.3336 133.827,12.5003 125.5,13C 123.618,13.1981 121.952,13.6981 120.5,14.5C 120.167,14.5 119.833,14.5 119.5,14.5C 115.5,14.5 111.5,14.5 107.5,14.5C 95.7719,14.8389 84.1052,15.8389 72.5,17.5C 72.5,18.5 72.5,19.5 72.5,20.5C 80.1132,21.7302 87.7799,22.3969 95.5,22.5C 108.416,24.0802 121.416,24.7469 134.5,24.5C 135.833,24.5 137.167,24.5 138.5,24.5C 140.833,25.1667 143.167,25.8333 145.5,26.5C 137.5,26.5 129.5,26.5 121.5,26.5C 101.651,25.0652 81.651,23.5652 61.5,22C 45.5,20 45.5,18 61.5,16C 81.9859,14.4506 102.319,12.9506 122.5,11.5 Z"/></g>
<g><path style="opacity:1" fill="#011512" d="M 150.5,12.5 C 145.5,13.1667 140.5,13.8333 135.5,14.5C 130.68,14.3032 125.68,14.3032 120.5,14.5C 121.952,13.6981 123.618,13.1981 125.5,13C 133.827,12.5003 142.16,12.3336 150.5,12.5 Z"/></g>
<g><path style="opacity:1" fill="#01221d" d="M 217.5,10.5 C 222.5,10.5 227.5,10.5 232.5,10.5C 248.833,10.5 265.167,10.5 281.5,10.5C 281.5,10.8333 281.5,11.1667 281.5,11.5C 281.167,11.5 280.833,11.5 280.5,11.5C 271.167,11.5 261.833,11.5 252.5,11.5C 229.488,11.9425 206.488,12.7759 183.5,14C 181.444,14.3108 179.444,14.8108 177.5,15.5C 173.022,13.9977 168.688,14.331 164.5,16.5C 161.679,15.2 159.012,15.5333 156.5,17.5C 151.067,16.3476 145.734,16.8476 140.5,19C 144.126,20.6395 147.793,20.8062 151.5,19.5C 152.696,19.8457 152.696,20.3457 151.5,21C 153.235,21.6514 154.902,21.4847 156.5,20.5C 159.012,22.4667 161.679,22.8 164.5,21.5C 168.098,23.76 171.931,24.0934 176,22.5C 181.473,24.4264 186.973,24.7597 192.5,23.5C 196.31,23.9965 199.976,24.9965 203.5,26.5C 184.862,25.0571 166.195,24.0571 147.5,23.5C 139.151,22.7418 130.817,21.2418 122.5,19C 130.817,16.7582 139.151,15.2582 147.5,14.5C 171.008,13.6914 194.341,12.3581 217.5,10.5 Z"/></g>
<g><path style="opacity:1" fill="#014b41" d="M 365.5,11.5 C 366.167,11.5 366.833,11.5 367.5,11.5C 382.833,11.5 398.167,11.5 413.5,11.5C 397.341,12.5843 381.008,13.2509 364.5,13.5C 364.833,12.8333 365.167,12.1667 365.5,11.5 Z"/></g>
<g><path style="opacity:1" fill="#015a4e" d="M 449.5,12.5 C 449.5,12.8333 449.5,13.1667 449.5,13.5C 428.142,13.652 406.809,14.4853 385.5,16C 360.999,17.7024 360.666,19.7024 384.5,22C 404.992,23.1568 425.325,24.3235 445.5,25.5C 412.831,25.0623 380.331,23.729 348,21.5C 346.046,19.5663 343.88,19.233 341.5,20.5C 341.264,19.7528 340.93,18.9195 340.5,18C 376.301,14.4382 412.634,12.6048 449.5,12.5 Z"/></g>
<g><path style="opacity:1" fill="#015e52" d="M 525.5,10.5 C 533.833,10.5 542.167,10.5 550.5,10.5C 550.5,10.8333 550.5,11.1667 550.5,11.5C 524.655,11.4543 498.988,12.121 473.5,13.5C 465.5,13.5 457.5,13.5 449.5,13.5C 449.5,13.1667 449.5,12.8333 449.5,12.5C 474.81,11.3427 500.143,10.6761 525.5,10.5 Z"/></g>
<g><path style="opacity:1" fill="#018a77" d="M 807.5,10.5 C 807.5,10.8333 807.5,11.1667 807.5,11.5C 761.154,11.4907 714.821,12.1573 668.5,13.5C 653.833,13.5 639.167,13.5 624.5,13.5C 640.5,12.8333 656.5,12.1667 672.5,11.5C 717.498,10.9872 762.498,10.6539 807.5,10.5 Z"/></g>
<g><path style="opacity:1" fill="#019783" d="M 807.5,11.5 C 811.167,11.5 814.833,11.5 818.5,11.5C 796.5,12.1667 774.5,12.8333 752.5,13.5C 751.167,13.5 749.833,13.5 748.5,13.5C 721.831,13.7122 695.165,14.0455 668.5,14.5C 668.5,14.1667 668.5,13.8333 668.5,13.5C 714.821,12.1573 761.154,11.4907 807.5,11.5 Z"/></g>
<g><path style="opacity:1" fill="#01b199" d="M 1335.5,14.5 C 1331.79,14.4094 1328.12,14.7427 1324.5,15.5C 1248.87,13.9729 1173.2,13.3062 1097.5,13.5C 1022.12,13.3041 946.788,13.9708 871.5,15.5C 867.238,14.7805 862.905,14.4472 858.5,14.5C 858.5,14.1667 858.5,13.8333 858.5,13.5C 937.832,12.9694 1017.17,12.6361 1096.5,12.5C 1176.34,12.3043 1256.01,12.971 1335.5,14.5 Z"/></g>
<g><path style="opacity:1" fill="#019f8a" d="M 1271.5,11.5 C 1294.17,11.5 1316.83,11.5 1339.5,11.5C 1378.84,11.4366 1418.17,11.7699 1457.5,12.5C 1468.19,12.2912 1478.86,12.6245 1489.5,13.5C 1489.5,13.8333 1489.5,14.1667 1489.5,14.5C 1475.17,14.5 1460.83,14.5 1446.5,14.5C 1446.17,14.5 1445.83,14.5 1445.5,14.5C 1387.34,13.3499 1329.34,12.3499 1271.5,11.5 Z"/></g>
<g><path style="opacity:1" fill="#018d7a" d="M 1457.5,12.5 C 1457.5,12.1667 1457.5,11.8333 1457.5,11.5C 1458.83,11.5 1460.17,11.5 1461.5,11.5C 1475.17,11.5 1488.83,11.5 1502.5,11.5C 1515.16,11.8999 1527.83,12.2332 1540.5,12.5C 1544.17,13.1667 1547.83,13.8333 1551.5,14.5C 1530.84,13.9212 1510.17,13.5879 1489.5,13.5C 1478.86,12.6245 1468.19,12.2912 1457.5,12.5 Z"/></g>
<g><path style="opacity:1" fill="#017767" d="M 1586.5,11.5 C 1594.83,11.5 1603.17,11.5 1611.5,11.5C 1634.99,12.6795 1658.66,13.3462 1682.5,13.5C 1682.5,13.8333 1682.5,14.1667 1682.5,14.5C 1676.5,14.5 1670.5,14.5 1664.5,14.5C 1644.83,14.1022 1625.17,13.7689 1605.5,13.5C 1604.17,13.5 1602.83,13.5 1601.5,13.5C 1596.5,12.8333 1591.5,12.1667 1586.5,11.5 Z"/></g>
<g><path style="opacity:1" fill="#016e5f" d="M 1611.5,11.5 C 1621.5,11.5 1631.5,11.5 1641.5,11.5C 1645.83,11.5 1650.17,11.5 1654.5,11.5C 1663.65,12.4936 1672.99,12.8269 1682.5,12.5C 1682.5,12.8333 1682.5,13.1667 1682.5,13.5C 1658.66,13.3462 1634.99,12.6795 1611.5,11.5 Z"/></g>
<g><path style="opacity:1" fill="#01685a" d="M 1682.5,13.5 C 1682.5,13.1667 1682.5,12.8333 1682.5,12.5C 1695.01,12.1714 1707.34,12.5048 1719.5,13.5C 1707.24,13.6606 1694.91,13.6606 1682.5,13.5 Z"/></g>
<g><path style="opacity:1" fill="#016053" d="M 1654.5,11.5 C 1669.17,11.5 1683.83,11.5 1698.5,11.5C 1713.85,11.3075 1729.18,11.6408 1744.5,12.5C 1744.5,12.8333 1744.5,13.1667 1744.5,13.5C 1736.5,13.5 1728.5,13.5 1720.5,13.5C 1720.17,13.5 1719.83,13.5 1719.5,13.5C 1707.34,12.5048 1695.01,12.1714 1682.5,12.5C 1672.99,12.8269 1663.65,12.4936 1654.5,11.5 Z"/></g>
<g><path style="opacity:1" fill="#015a4e" d="M 1744.5,13.5 C 1744.5,13.1667 1744.5,12.8333 1744.5,12.5C 1763.09,12.4028 1781.59,13.0694 1800,14.5C 1800.38,13.944 1800.88,13.6107 1801.5,13.5C 1817.35,14.5756 1833.35,15.7423 1849.5,17C 1851.52,18.2166 1853.52,18.3833 1855.5,17.5C 1855.83,17.8333 1856.17,18.1667 1856.5,18.5C 1855.83,19.1667 1855.17,19.8333 1854.5,20.5C 1832.61,22.8641 1810.61,24.5307 1788.5,25.5C 1778.65,25.1729 1768.99,25.5062 1759.5,26.5C 1748.83,26.5 1738.17,26.5 1727.5,26.5C 1752.67,25.2838 1778,24.1172 1803.5,23C 1813.23,22.5857 1822.9,21.5857 1832.5,20C 1832.83,19.6667 1833.17,19.3333 1833.5,19C 1825.93,17.4174 1818.26,16.4174 1810.5,16C 1789.52,14.5616 1768.52,13.7283 1747.5,13.5C 1746.5,13.5 1745.5,13.5 1744.5,13.5 Z"/></g>
<g><path style="opacity:1" fill="#01342d" d="M 1969.5,24.5 C 1962.88,24.0065 1956.22,24.3399 1949.5,25.5C 1948.45,25.3201 1947.45,24.9867 1946.5,24.5C 1920.57,26.4501 1894.57,27.4501 1868.5,27.5C 1878.17,26.8333 1887.83,26.1667 1897.5,25.5C 1923.57,25.2768 1949.57,23.7768 1975.5,21C 1977.38,20.7837 1979.05,20.117 1980.5,19C 1974.29,17.2785 1967.96,16.2785 1961.5,16C 1943.48,14.7876 1925.82,13.621 1908.5,12.5C 1909.26,12.0766 1910.1,11.7432 1911,11.5C 1926.06,12.2447 1941.06,13.2447 1956,14.5C 1956.56,13.9781 1957.23,13.6448 1958,13.5C 1967.29,14.6857 1976.46,15.6857 1985.5,16.5C 1989.04,15.5818 1992.54,15.9151 1996,17.5C 1998.2,16.2476 2000.2,16.5809 2002,18.5C 2004.12,21.458 2003.45,22.1247 2000,20.5C 1997.61,22.2554 1995.11,22.5888 1992.5,21.5C 1984.79,22.186 1977.13,23.186 1969.5,24.5 Z"/></g>
<g><path style="opacity:1" fill="#012621" d="M 1934.5,10.5 C 1942.17,10.5 1949.83,10.5 1957.5,10.5C 1958.83,10.5 1960.17,10.5 1961.5,10.5C 1971.02,11.2423 1980.69,11.9089 1990.5,12.5C 1999.75,13.1029 2009.08,14.1029 2018.5,15.5C 2022.95,14.0963 2027.28,14.4297 2031.5,16.5C 2034.74,14.9046 2037.74,15.2379 2040.5,17.5C 2042.79,15.9756 2044.79,16.3089 2046.5,18.5C 2050.33,17.047 2054,17.3803 2057.5,19.5C 2053.25,21.442 2048.92,21.7753 2044.5,20.5C 2042.42,22.6044 2040.08,22.9377 2037.5,21.5C 2035.81,22.9686 2033.81,23.6353 2031.5,23.5C 2024.58,24.229 2017.58,24.229 2010.5,23.5C 2012,22.6942 2013.66,22.0276 2015.5,21.5C 2018.08,22.9377 2020.42,22.6044 2022.5,20.5C 2026.4,21.7545 2030.06,21.2545 2033.5,19C 2028.56,17.1721 2023.56,16.6721 2018.5,17.5C 2015.32,15.4135 2011.99,15.0802 2008.5,16.5C 2004.4,14.7759 2000.24,14.4426 1996,15.5C 1977.23,13.5936 1958.4,12.4269 1939.5,12C 1937.62,11.8019 1935.95,11.3019 1934.5,10.5 Z"/></g>
<g><path style="opacity:1" fill="#01211d" d="M 1990.5,12.5 C 2000.83,12.5 2011.17,12.5 2021.5,12.5C 2022.17,12.5 2022.83,12.5 2023.5,12.5C 2035.28,14.3069 2047.28,15.3069 2059.5,15.5C 2065.11,16.2655 2070.78,17.4322 2076.5,19C 2069.61,21.3672 2062.61,22.8672 2055.5,23.5C 2041.62,23.6573 2027.95,24.6573 2014.5,26.5C 2013.5,26.5 2012.5,26.5 2011.5,26.5C 2008.5,26.5 2005.5,26.5 2002.5,26.5C 2004.86,24.9016 2007.52,23.9016 2010.5,23.5C 2017.58,24.229 2024.58,24.229 2031.5,23.5C 2033.81,23.6353 2035.81,22.9686 2037.5,21.5C 2040.08,22.9377 2042.42,22.6044 2044.5,20.5C 2048.92,21.7753 2053.25,21.442 2057.5,19.5C 2054,17.3803 2050.33,17.047 2046.5,18.5C 2044.79,16.3089 2042.79,15.9756 2040.5,17.5C 2037.74,15.2379 2034.74,14.9046 2031.5,16.5C 2027.28,14.4297 2022.95,14.0963 2018.5,15.5C 2009.08,14.1029 1999.75,13.1029 1990.5,12.5 Z"/></g>
<g><path style="opacity:1" fill="#010f0d" d="M 1809.5,6.5 C 1809.5,6.16667 1809.5,5.83333 1809.5,5.5C 1903.27,6.18405 1996.94,8.51738 2090.5,12.5C 2109.41,13.7168 2128.41,15.5502 2147.5,18C 2148.31,18.3076 2148.97,18.8076 2149.5,19.5C 2146.31,20.8655 2142.98,21.6988 2139.5,22C 2120.68,23.5643 2102.02,25.0643 2083.5,26.5C 2066.54,27.6098 2049.54,28.2765 2032.5,28.5C 2032.5,28.1667 2032.5,27.8333 2032.5,27.5C 2053.33,26.5603 2074,25.227 2094.5,23.5C 2094.83,23.5 2095.17,23.5 2095.5,23.5C 2106.37,23.543 2117.04,22.2096 2127.5,19.5C 2125.45,17.9848 2123.12,17.1515 2120.5,17C 2087.58,13.7636 2054.58,11.9303 2021.5,11.5C 2001.5,11.0834 1981.5,10.7501 1961.5,10.5C 1960.17,10.5 1958.83,10.5 1957.5,10.5C 1908.34,8.65478 1859.01,7.32145 1809.5,6.5 Z"/></g>
<g><path style="opacity:1" fill="#011a16" d="M 135.5,14.5 C 126.54,15.4172 117.54,16.9172 108.5,19C 117.199,21.1196 125.866,22.6196 134.5,23.5C 120.637,23.5953 106.971,22.0953 93.5,19C 102.187,16.837 110.854,15.337 119.5,14.5C 119.833,14.5 120.167,14.5 120.5,14.5C 125.68,14.3032 130.68,14.3032 135.5,14.5 Z"/></g>
<g><path style="opacity:1" fill="#013b33" d="M 308.5,12.5 C 287.536,13.8051 266.536,15.4718 245.5,17.5C 245.5,18.5 245.5,19.5 245.5,20.5C 265.958,22.4451 286.292,24.1118 306.5,25.5C 279.166,25.0185 252.166,23.5185 225.5,21C 222.768,20.587 220.101,19.9203 217.5,19C 233.067,16.2771 248.734,14.4437 264.5,13.5C 265.086,13.7093 265.586,14.0426 266,14.5C 280.071,13.0176 294.238,12.3509 308.5,12.5 Z"/></g>
<g><path style="opacity:1" fill="#01463c" d="M 365.5,11.5 C 365.167,12.1667 364.833,12.8333 364.5,13.5C 363.833,13.5 363.167,13.5 362.5,13.5C 344.141,13.7206 325.808,14.554 307.5,16C 283.507,18.0022 283.507,20.0022 307.5,22C 318.143,23.0426 328.809,23.5426 339.5,23.5C 347.222,23.2329 354.889,23.5663 362.5,24.5C 373.497,25.539 384.497,26.539 395.5,27.5C 382.815,27.6549 370.149,27.3216 357.5,26.5C 336.991,25.3626 316.324,24.1959 295.5,23C 285.411,22.5272 275.411,21.3605 265.5,19.5C 269.621,17.8308 273.954,16.6641 278.5,16C 289.59,15.6073 300.59,14.7739 311.5,13.5C 329.439,11.9965 347.439,11.3298 365.5,11.5 Z"/></g>
<g><path style="opacity:1" fill="#014d42" d="M 362.5,13.5 C 345.609,14.5387 328.609,16.0387 311.5,18C 310.833,18.3333 310.167,18.6667 309.5,19C 311.715,20.0438 314.048,20.7105 316.5,21C 324.336,21.6621 332.003,22.4955 339.5,23.5C 328.809,23.5426 318.143,23.0426 307.5,22C 283.507,20.0022 283.507,18.0022 307.5,16C 325.808,14.554 344.141,13.7206 362.5,13.5 Z"/></g>
<g><path style="opacity:1" fill="#016054" d="M 449.5,13.5 C 436.666,14.4598 423.666,15.2931 410.5,16C 403.056,16.4764 395.722,17.4764 388.5,19C 395.38,20.5804 402.38,21.5804 409.5,22C 423.508,22.8639 437.508,23.6972 451.5,24.5C 459.019,24.175 466.352,24.5084 473.5,25.5C 465.833,25.5 458.167,25.5 450.5,25.5C 448.833,25.5 447.167,25.5 445.5,25.5C 425.325,24.3235 404.992,23.1568 384.5,22C 360.666,19.7024 360.999,17.7024 385.5,16C 406.809,14.4853 428.142,13.652 449.5,13.5 Z"/></g>
<g><path style="opacity:1" fill="#016759" d="M 449.5,13.5 C 457.5,13.5 465.5,13.5 473.5,13.5C 462.299,14.5743 450.966,15.5743 439.5,16.5C 435.446,15.5044 431.446,15.8377 427.5,17.5C 424.895,15.942 422.562,16.2753 420.5,18.5C 417.462,17.2692 414.462,17.4359 411.5,19C 414.239,20.7478 417.073,20.9144 420,19.5C 420.106,20.7939 421.106,21.4606 423,21.5C 426.725,20.5052 430.392,20.8385 434,22.5C 435.366,22.2935 436.699,21.9602 438,21.5C 442.472,22.3714 446.972,23.0381 451.5,23.5C 451.5,23.8333 451.5,24.1667 451.5,24.5C 437.508,23.6972 423.508,22.8639 409.5,22C 402.38,21.5804 395.38,20.5804 388.5,19C 395.722,17.4764 403.056,16.4764 410.5,16C 423.666,15.2931 436.666,14.4598 449.5,13.5 Z"/></g>
<g><path style="opacity:1" fill="#018f7c" d="M 614.5,13.5 C 617.833,13.5 621.167,13.5 624.5,13.5C 639.167,13.5 653.833,13.5 668.5,13.5C 668.5,13.8333 668.5,14.1667 668.5,14.5C 649.496,14.6516 630.496,14.985 611.5,15.5C 612.5,14.8333 613.5,14.1667 614.5,13.5 Z"/></g>
<g><path style="opacity:1" fill="#016054" d="M 1747.5,13.5 C 1768.52,13.7283 1789.52,14.5616 1810.5,16C 1818.26,16.4174 1825.93,17.4174 1833.5,19C 1833.17,19.3333 1832.83,19.6667 1832.5,20C 1822.9,21.5857 1813.23,22.5857 1803.5,23C 1778,24.1172 1752.67,25.2838 1727.5,26.5C 1724.17,26.5 1720.83,26.5 1717.5,26.5C 1712.17,26.5 1706.83,26.5 1701.5,26.5C 1736.4,25.3119 1771.4,23.3119 1806.5,20.5C 1808.57,20.1758 1808.9,19.3425 1807.5,18C 1787.37,16.2005 1767.37,14.7005 1747.5,13.5 Z"/></g>
<g><path style="opacity:1" fill="#013a33" d="M 1882.5,11.5 C 1891.35,11.1736 1900.02,11.507 1908.5,12.5C 1925.82,13.621 1943.48,14.7876 1961.5,16C 1967.96,16.2785 1974.29,17.2785 1980.5,19C 1979.05,20.117 1977.38,20.7837 1975.5,21C 1949.57,23.7768 1923.57,25.2768 1897.5,25.5C 1912.38,24.2956 1927.38,22.9623 1942.5,21.5C 1943.09,21.7093 1943.59,22.0426 1944,22.5C 1947.12,21.4394 1950.29,20.4394 1953.5,19.5C 1953.29,18.914 1952.96,18.414 1952.5,18C 1930.29,15.4372 1907.96,13.7705 1885.5,13C 1884.26,12.7679 1883.26,12.2679 1882.5,11.5 Z"/></g>
<g><path style="opacity:1" fill="#011a17" d="M 2023.5,12.5 C 2045.04,13.251 2066.37,14.251 2087.5,15.5C 2093.43,16.3362 2099.43,17.5029 2105.5,19C 2098.21,21.2962 2090.88,22.7962 2083.5,23.5C 2060.52,24.9323 2037.52,25.9323 2014.5,26.5C 2027.95,24.6573 2041.62,23.6573 2055.5,23.5C 2065.55,23.2622 2075.55,22.4289 2085.5,21C 2087.04,20.7104 2088.38,20.0437 2089.5,19C 2079.66,16.5203 2069.66,15.3536 2059.5,15.5C 2047.28,15.3069 2035.28,14.3069 2023.5,12.5 Z"/></g>
<g><path style="opacity:1" fill="#010908" d="M 2083.5,26.5 C 2102.02,25.0643 2120.68,23.5643 2139.5,22C 2142.98,21.6988 2146.31,20.8655 2149.5,19.5C 2148.97,18.8076 2148.31,18.3076 2147.5,18C 2128.41,15.5502 2109.41,13.7168 2090.5,12.5C 2090.74,11.9033 2091.24,11.5699 2092,11.5C 2104.85,12.4129 2117.68,13.4129 2130.5,14.5C 2144.81,14.5018 2159.14,16.0018 2173.5,19C 2172.05,20.117 2170.38,20.7837 2168.5,21C 2140.02,24.3771 2111.68,26.2104 2083.5,26.5 Z"/></g>
<g><path style="opacity:1" fill="#011311" d="M 107.5,14.5 C 99.9639,15.5709 92.2973,16.7375 84.5,18C 83.1667,18.6667 83.1667,19.3333 84.5,20C 88.3474,20.6334 92.014,21.4667 95.5,22.5C 87.7799,22.3969 80.1132,21.7302 72.5,20.5C 72.5,19.5 72.5,18.5 72.5,17.5C 84.1052,15.8389 95.7719,14.8389 107.5,14.5 Z"/></g>
<g><path style="opacity:1" fill="#011613" d="M 107.5,14.5 C 111.5,14.5 115.5,14.5 119.5,14.5C 110.854,15.337 102.187,16.837 93.5,19C 106.971,22.0953 120.637,23.5953 134.5,23.5C 134.5,23.8333 134.5,24.1667 134.5,24.5C 121.416,24.7469 108.416,24.0802 95.5,22.5C 92.014,21.4667 88.3474,20.6334 84.5,20C 83.1667,19.3333 83.1667,18.6667 84.5,18C 92.2973,16.7375 99.9639,15.5709 107.5,14.5 Z"/></g>
<g><path style="opacity:1" fill="#011d19" d="M 135.5,14.5 C 139.5,14.5 143.5,14.5 147.5,14.5C 139.151,15.2582 130.817,16.7582 122.5,19C 130.817,21.2418 139.151,22.7418 147.5,23.5C 143.167,23.5 138.833,23.5 134.5,23.5C 125.866,22.6196 117.199,21.1196 108.5,19C 117.54,16.9172 126.54,15.4172 135.5,14.5 Z"/></g>
<g><path style="opacity:1" fill="#015348" d="M 470.5,9.5 C 476.833,9.5 483.167,9.5 489.5,9.5C 501.5,9.5 513.5,9.5 525.5,9.5C 525.5,9.83333 525.5,10.1667 525.5,10.5C 500.143,10.6761 474.81,11.3427 449.5,12.5C 412.634,12.6048 376.301,14.4382 340.5,18C 340.93,18.9195 341.264,19.7528 341.5,20.5C 343.88,19.233 346.046,19.5663 348,21.5C 380.331,23.729 412.831,25.0623 445.5,25.5C 447.167,25.5 448.833,25.5 450.5,25.5C 458.833,26.1667 467.167,26.8333 475.5,27.5C 471.5,27.5 467.5,27.5 463.5,27.5C 458.167,27.5 452.833,27.5 447.5,27.5C 419.334,26.2528 391.001,25.2528 362.5,24.5C 354.889,23.5663 347.222,23.2329 339.5,23.5C 332.003,22.4955 324.336,21.6621 316.5,21C 314.048,20.7105 311.715,20.0438 309.5,19C 310.167,18.6667 310.833,18.3333 311.5,18C 328.609,16.0387 345.609,14.5387 362.5,13.5C 363.167,13.5 363.833,13.5 364.5,13.5C 381.008,13.2509 397.341,12.5843 413.5,11.5C 432.666,11.0484 451.666,10.3817 470.5,9.5 Z"/></g>
<g><path style="opacity:1" fill="#017364" d="M 565.5,12.5 C 553.962,13.2066 542.296,13.8732 530.5,14.5C 512.221,14.4707 494.054,15.4707 476,17.5C 475.667,17.1667 475.333,16.8333 475,16.5C 471.853,17.2776 468.687,18.1109 465.5,19C 472.681,20.8621 480.014,21.8621 487.5,22C 500.816,23.0065 514.149,23.5065 527.5,23.5C 538.629,24.1242 549.629,24.7909 560.5,25.5C 533.133,25.8204 505.8,25.1538 478.5,23.5C 468.79,22.6777 458.957,21.6777 449,20.5C 448.127,20.7355 447.293,21.0688 446.5,21.5C 443.214,19.7639 439.881,18.9305 436.5,19C 440.238,18.8171 443.905,17.9838 447.5,16.5C 448.293,16.9312 449.127,17.2645 450,17.5C 459.506,16.423 469.006,15.423 478.5,14.5C 507.468,13.3986 536.468,12.7319 565.5,12.5 Z"/></g>
<g><path style="opacity:1" fill="#017a6a" d="M 530.5,14.5 C 516.196,15.2396 501.862,16.7396 487.5,19C 500.797,21.2903 514.131,22.7903 527.5,23.5C 514.149,23.5065 500.816,23.0065 487.5,22C 480.014,21.8621 472.681,20.8621 465.5,19C 468.687,18.1109 471.853,17.2776 475,16.5C 475.333,16.8333 475.667,17.1667 476,17.5C 494.054,15.4707 512.221,14.4707 530.5,14.5 Z"/></g>
<g><path style="opacity:1" fill="#017e6e" d="M 656.5,11.5 C 661.833,11.5 667.167,11.5 672.5,11.5C 656.5,12.1667 640.5,12.8333 624.5,13.5C 621.167,13.5 617.833,13.5 614.5,13.5C 604.473,13.3012 594.473,13.6345 584.5,14.5C 561.031,14.3397 537.698,15.8397 514.5,19C 522.024,20.8115 529.691,21.8115 537.5,22C 551.818,22.9716 566.152,23.4716 580.5,23.5C 650.455,26.0325 720.455,27.3659 790.5,27.5C 791.167,27.5 791.5,27.8333 791.5,28.5C 730.161,28.3032 668.828,27.6365 607.5,26.5C 591.852,25.6172 576.186,25.2838 560.5,25.5C 549.629,24.7909 538.629,24.1242 527.5,23.5C 514.131,22.7903 500.797,21.2903 487.5,19C 501.862,16.7396 516.196,15.2396 530.5,14.5C 542.296,13.8732 553.962,13.2066 565.5,12.5C 566.5,12.5 567.5,12.5 568.5,12.5C 597.831,12.0067 627.164,11.6734 656.5,11.5 Z"/></g>
<g><path style="opacity:1" fill="#018b78" d="M 614.5,13.5 C 613.5,14.1667 612.5,14.8333 611.5,15.5C 594.702,15.1747 578.035,16.3413 561.5,19C 561.833,19.3333 562.167,19.6667 562.5,20C 584.781,22.1642 607.114,23.3308 629.5,23.5C 643.478,24.3882 657.478,24.7216 671.5,24.5C 672.833,24.5 674.167,24.5 675.5,24.5C 713.83,25.6538 752.163,26.6538 790.5,27.5C 720.455,27.3659 650.455,26.0325 580.5,23.5C 568.474,22.6189 556.307,21.6189 544,20.5C 541.145,21.9988 538.645,21.4988 536.5,19C 539.449,17.1394 542.449,16.6394 545.5,17.5C 558.638,16.2962 571.638,15.2962 584.5,14.5C 594.473,13.6345 604.473,13.3012 614.5,13.5 Z"/></g>
<g><path style="opacity:1" fill="#01b199" d="M 858.5,14.5 C 827.361,15.5112 796.361,16.6779 765.5,18C 767.595,18.5556 767.762,19.0556 766,19.5C 763.88,18.5411 761.713,18.3744 759.5,19C 765.943,20.1398 772.443,20.9731 779,21.5C 780.366,21.2935 781.699,20.9602 783,20.5C 803.787,22.0081 824.621,22.6747 845.5,22.5C 816.906,23.421 788.239,23.421 759.5,22.5C 747.997,21.5597 736.331,20.7263 724.5,20C 724.167,19.6667 723.833,19.3333 723.5,19C 725.154,18.3923 726.821,17.8923 728.5,17.5C 729.833,17.5 731.167,17.5 732.5,17.5C 774.685,15.3412 816.685,14.3412 858.5,14.5 Z"/></g>
<g><path style="opacity:1" fill="#01b89f" d="M 858.5,14.5 C 862.905,14.4472 867.238,14.7805 871.5,15.5C 853.608,16.1571 835.775,17.1571 818,18.5C 815.603,17.7072 812.77,17.8739 809.5,19C 810.833,19.3333 812.167,19.6667 813.5,20C 844.98,21.5547 876.314,22.7214 907.5,23.5C 890.167,23.5 872.833,23.5 855.5,23.5C 852.061,23.7471 848.728,23.4137 845.5,22.5C 824.621,22.6747 803.787,22.0081 783,20.5C 781.699,20.9602 780.366,21.2935 779,21.5C 772.443,20.9731 765.943,20.1398 759.5,19C 761.713,18.3744 763.88,18.5411 766,19.5C 767.762,19.0556 767.595,18.5556 765.5,18C 796.361,16.6779 827.361,15.5112 858.5,14.5 Z"/></g>
<g><path style="opacity:1" fill="#02bda4" d="M 1324.5,15.5 C 1346.52,16.1724 1368.52,17.3391 1390.5,19C 1383.9,20.1632 1377.23,20.8299 1370.5,21C 1345,21.8006 1319.67,22.634 1294.5,23.5C 1292.26,23.2053 1290.26,23.5386 1288.5,24.5C 1286.5,24.5 1284.5,24.5 1282.5,24.5C 1157.49,24.8206 1032.49,24.4873 907.5,23.5C 876.314,22.7214 844.98,21.5547 813.5,20C 812.167,19.6667 810.833,19.3333 809.5,19C 812.77,17.8739 815.603,17.7072 818,18.5C 835.775,17.1571 853.608,16.1571 871.5,15.5C 946.788,13.9708 1022.12,13.3041 1097.5,13.5C 1173.2,13.3062 1248.87,13.9729 1324.5,15.5 Z"/></g>
<g><path style="opacity:1" fill="#01b89f" d="M 1324.5,15.5 C 1328.12,14.7427 1331.79,14.4094 1335.5,14.5C 1336.17,14.5 1336.83,14.5 1337.5,14.5C 1361.24,15.275 1385.08,16.275 1409,17.5C 1410.23,16.8922 1411.56,16.5589 1413,16.5C 1418.07,16.9894 1423.07,17.6561 1428,18.5C 1430.59,17.0183 1432.93,17.3517 1435,19.5C 1436.39,18.4464 1437.89,18.2797 1439.5,19C 1439.17,19.3333 1438.83,19.6667 1438.5,20C 1390.27,22.5277 1342.27,23.6944 1294.5,23.5C 1319.67,22.634 1345,21.8006 1370.5,21C 1377.23,20.8299 1383.9,20.1632 1390.5,19C 1368.52,17.3391 1346.52,16.1724 1324.5,15.5 Z"/></g>
<g><path style="opacity:1" fill="#01b199" d="M 1337.5,14.5 C 1368.78,14.6344 1399.78,14.9677 1430.5,15.5C 1444,16.4683 1457.67,17.3017 1471.5,18C 1472.94,18.2189 1474.27,18.7189 1475.5,19.5C 1461.53,21.8991 1447.53,22.5657 1433.5,21.5C 1425.7,22.137 1418.04,22.8037 1410.5,23.5C 1369.84,24.0525 1329.17,24.3858 1288.5,24.5C 1290.26,23.5386 1292.26,23.2053 1294.5,23.5C 1342.27,23.6944 1390.27,22.5277 1438.5,20C 1438.83,19.6667 1439.17,19.3333 1439.5,19C 1437.89,18.2797 1436.39,18.4464 1435,19.5C 1432.93,17.3517 1430.59,17.0183 1428,18.5C 1423.07,17.6561 1418.07,16.9894 1413,16.5C 1411.56,16.5589 1410.23,16.8922 1409,17.5C 1385.08,16.275 1361.24,15.275 1337.5,14.5 Z"/></g>
<g><path style="opacity:1" fill="#01a08a" d="M 1489.5,14.5 C 1510.84,14.4868 1532.18,14.9868 1553.5,16C 1564.64,16.1343 1575.64,17.3009 1586.5,19.5C 1584.58,20.3078 1582.58,20.8078 1580.5,21C 1556.01,22.2851 1531.68,23.4518 1507.5,24.5C 1489.53,25.4461 1471.53,25.7794 1453.5,25.5C 1440.17,25.5 1426.83,25.5 1413.5,25.5C 1423.83,24.8333 1434.17,24.1667 1444.5,23.5C 1447.5,23.5 1450.5,23.5 1453.5,23.5C 1470.84,23.3443 1488.17,23.011 1505.5,22.5C 1518.19,22.5143 1530.85,22.0143 1543.5,21C 1547.29,20.8404 1550.95,20.1737 1554.5,19C 1552.78,18.654 1551.12,18.154 1549.5,17.5C 1548.91,17.7093 1548.41,18.0426 1548,18.5C 1528.44,16.5166 1508.94,15.1833 1489.5,14.5 Z"/></g>
<g><path style="opacity:1" fill="#01927f" d="M 1559.5,14.5 C 1584.55,14.6687 1609.55,15.8353 1634.5,18C 1638.33,19.3694 1638,20.2028 1633.5,20.5C 1620.96,21.5638 1608.3,22.5638 1595.5,23.5C 1588.17,23.5 1580.83,23.5 1573.5,23.5C 1588.47,22.7612 1603.47,21.2612 1618.5,19C 1598.73,16.8309 1579.07,15.3309 1559.5,14.5 Z"/></g>
<g><path style="opacity:1" fill="#018b78" d="M 1540.5,12.5 C 1560.83,12.9343 1581.16,13.2676 1601.5,13.5C 1602.83,13.5 1604.17,13.5 1605.5,13.5C 1615.17,14.1667 1624.83,14.8333 1634.5,15.5C 1640,16.3046 1645.67,16.9712 1651.5,17.5C 1652.77,17.4302 1653.94,17.0968 1655,16.5C 1657.35,17.7143 1659.85,18.5477 1662.5,19C 1661.18,21.6894 1659.35,22.1894 1657,20.5C 1645.69,21.5954 1634.53,22.5954 1623.5,23.5C 1622.21,23.2627 1621.21,23.596 1620.5,24.5C 1619.83,24.5 1619.17,24.5 1618.5,24.5C 1610.83,24.5 1603.17,24.5 1595.5,24.5C 1595.5,24.1667 1595.5,23.8333 1595.5,23.5C 1608.3,22.5638 1620.96,21.5638 1633.5,20.5C 1638,20.2028 1638.33,19.3694 1634.5,18C 1609.55,15.8353 1584.55,14.6687 1559.5,14.5C 1556.83,14.5 1554.17,14.5 1551.5,14.5C 1547.83,13.8333 1544.17,13.1667 1540.5,12.5 Z"/></g>
<g><path style="opacity:1" fill="#017464" d="M 1688.5,14.5 C 1712.52,14.8735 1736.19,16.0402 1759.5,18C 1757.51,20.7635 1755.01,21.5969 1752,20.5C 1734.23,22.4213 1716.4,23.4213 1698.5,23.5C 1710.55,22.8722 1722.55,21.3722 1734.5,19C 1719.09,16.8335 1703.76,15.3335 1688.5,14.5 Z"/></g>
<g><path style="opacity:1" fill="#016759" d="M 1720.5,13.5 C 1728.5,13.5 1736.5,13.5 1744.5,13.5C 1745.5,13.5 1746.5,13.5 1747.5,13.5C 1767.37,14.7005 1787.37,16.2005 1807.5,18C 1808.9,19.3425 1808.57,20.1758 1806.5,20.5C 1771.4,23.3119 1736.4,25.3119 1701.5,26.5C 1688.83,26.5 1676.17,26.5 1663.5,26.5C 1663.5,26.1667 1663.5,25.8333 1663.5,25.5C 1664.83,25.5 1666.17,25.5 1667.5,25.5C 1694.89,25.2752 1722.23,24.2752 1749.5,22.5C 1754.52,23.2513 1759.52,22.918 1764.5,21.5C 1767.77,22.5625 1770.94,22.2292 1774,20.5C 1776.06,21.5914 1778.23,21.7581 1780.5,21C 1778.35,18.8455 1775.85,17.3455 1773,16.5C 1769.03,17.1173 1765.03,16.784 1761,15.5C 1759.77,15.6448 1758.61,15.9781 1757.5,16.5C 1745.03,15.6018 1732.7,14.6018 1720.5,13.5 Z"/></g>
<g><path style="opacity:1" fill="#015348" d="M 1801.5,13.5 C 1810.5,13.5 1819.5,13.5 1828.5,13.5C 1836.8,14.3713 1845.13,14.7047 1853.5,14.5C 1864.36,15.6025 1875.36,16.7692 1886.5,18C 1887.5,18.3333 1888.5,18.6667 1889.5,19C 1889.17,19.3333 1888.83,19.6667 1888.5,20C 1873.09,22.1711 1857.76,23.6711 1842.5,24.5C 1833.68,25.4933 1824.68,25.8266 1815.5,25.5C 1806.5,25.5 1797.5,25.5 1788.5,25.5C 1810.61,24.5307 1832.61,22.8641 1854.5,20.5C 1855.17,19.8333 1855.83,19.1667 1856.5,18.5C 1856.17,18.1667 1855.83,17.8333 1855.5,17.5C 1853.52,18.3833 1851.52,18.2166 1849.5,17C 1833.35,15.7423 1817.35,14.5756 1801.5,13.5 Z"/></g>
<g><path style="opacity:1" fill="#014d42" d="M 1853.5,14.5 C 1872.31,14.387 1890.97,15.887 1909.5,19C 1909.17,19.3333 1908.83,19.6667 1908.5,20C 1886.61,23.0125 1864.61,24.5125 1842.5,24.5C 1857.76,23.6711 1873.09,22.1711 1888.5,20C 1888.83,19.6667 1889.17,19.3333 1889.5,19C 1888.5,18.6667 1887.5,18.3333 1886.5,18C 1875.36,16.7692 1864.36,15.6025 1853.5,14.5 Z"/></g>
<g><path style="opacity:1" fill="#011411" d="M 2021.5,12.5 C 2021.5,12.1667 2021.5,11.8333 2021.5,11.5C 2054.58,11.9303 2087.58,13.7636 2120.5,17C 2123.12,17.1515 2125.45,17.9848 2127.5,19.5C 2117.04,22.2096 2106.37,23.543 2095.5,23.5C 2102.14,22.6398 2108.81,21.3064 2115.5,19.5C 2113.12,17.9293 2110.45,17.096 2107.5,17C 2100.87,15.9477 2094.21,15.4477 2087.5,15.5C 2066.37,14.251 2045.04,13.251 2023.5,12.5C 2022.83,12.5 2022.17,12.5 2021.5,12.5 Z"/></g>
<g><path style="opacity:1" fill="#014138" d="M 308.5,12.5 C 308.833,12.5 309.167,12.5 309.5,12.5C 310.492,12.3284 311.158,12.6618 311.5,13.5C 300.59,14.7739 289.59,15.6073 278.5,16C 273.954,16.6641 269.621,17.8308 265.5,19.5C 275.411,21.3605 285.411,22.5272 295.5,23C 316.324,24.1959 336.991,25.3626 357.5,26.5C 342.5,26.5 327.5,26.5 312.5,26.5C 310.379,26.6747 308.379,26.3414 306.5,25.5C 286.292,24.1118 265.958,22.4451 245.5,20.5C 245.5,19.5 245.5,18.5 245.5,17.5C 266.536,15.4718 287.536,13.8051 308.5,12.5 Z"/></g>
<g><path style="opacity:1" fill="#016d5e" d="M 473.5,13.5 C 475.415,13.2155 477.081,13.5489 478.5,14.5C 469.006,15.423 459.506,16.423 450,17.5C 449.127,17.2645 448.293,16.9312 447.5,16.5C 443.905,17.9838 440.238,18.8171 436.5,19C 439.881,18.9305 443.214,19.7639 446.5,21.5C 447.293,21.0688 448.127,20.7355 449,20.5C 458.957,21.6777 468.79,22.6777 478.5,23.5C 469.35,23.4041 460.35,23.4041 451.5,23.5C 446.972,23.0381 442.472,22.3714 438,21.5C 436.699,21.9602 435.366,22.2935 434,22.5C 430.392,20.8385 426.725,20.5052 423,21.5C 421.106,21.4606 420.106,20.7939 420,19.5C 417.073,20.9144 414.239,20.7478 411.5,19C 414.462,17.4359 417.462,17.2692 420.5,18.5C 422.562,16.2753 424.895,15.942 427.5,17.5C 431.446,15.8377 435.446,15.5044 439.5,16.5C 450.966,15.5743 462.299,14.5743 473.5,13.5 Z"/></g>
<g><path style="opacity:1" fill="#018674" d="M 584.5,14.5 C 571.638,15.2962 558.638,16.2962 545.5,17.5C 542.449,16.6394 539.449,17.1394 536.5,19C 538.645,21.4988 541.145,21.9988 544,20.5C 556.307,21.6189 568.474,22.6189 580.5,23.5C 566.152,23.4716 551.818,22.9716 537.5,22C 529.691,21.8115 522.024,20.8115 514.5,19C 537.698,15.8397 561.031,14.3397 584.5,14.5 Z"/></g>
<g><path style="opacity:1" fill="#01927f" d="M 611.5,15.5 C 601.587,16.1795 591.587,17.3462 581.5,19C 597.561,21.2339 613.561,22.7339 629.5,23.5C 607.114,23.3308 584.781,22.1642 562.5,20C 562.167,19.6667 561.833,19.3333 561.5,19C 578.035,16.3413 594.702,15.1747 611.5,15.5 Z"/></g>
<g><path style="opacity:1" fill="#019884" d="M 668.5,14.5 C 654.665,15.4498 640.665,16.2831 626.5,17C 621.968,17.049 617.634,17.8823 613.5,19.5C 616.258,19.2251 619.091,19.8917 622,21.5C 622.414,21.0426 622.914,20.7093 623.5,20.5C 639.652,21.5739 655.652,22.9072 671.5,24.5C 657.478,24.7216 643.478,24.3882 629.5,23.5C 613.561,22.7339 597.561,21.2339 581.5,19C 591.587,17.3462 601.587,16.1795 611.5,15.5C 630.496,14.985 649.496,14.6516 668.5,14.5 Z"/></g>
<g><path style="opacity:1" fill="#01a48e" d="M 748.5,13.5 C 749.833,13.5 751.167,13.5 752.5,13.5C 767.167,13.5 781.833,13.5 796.5,13.5C 778.334,14.4143 760.001,15.081 741.5,15.5C 716.482,15.81 691.482,16.6434 666.5,18C 666.043,18.414 665.709,18.914 665.5,19.5C 675.966,20.6864 686.3,21.6864 696.5,22.5C 680.535,22.6886 664.702,21.6886 649,19.5C 647.365,20.8486 645.865,20.6819 644.5,19C 645.167,18.6667 645.833,18.3333 646.5,18C 680.635,15.9251 714.635,14.4251 748.5,13.5 Z"/></g>
<g><path style="opacity:1" fill="#01ac95" d="M 796.5,13.5 C 805.5,13.5 814.5,13.5 823.5,13.5C 835.167,13.5 846.833,13.5 858.5,13.5C 858.5,13.8333 858.5,14.1667 858.5,14.5C 816.685,14.3412 774.685,15.3412 732.5,17.5C 735.5,16.8333 738.5,16.1667 741.5,15.5C 760.001,15.081 778.334,14.4143 796.5,13.5 Z"/></g>
<g><path style="opacity:1" fill="#01a892" d="M 1471.5,16.5 C 1472.62,15.8442 1473.95,15.5108 1475.5,15.5C 1493.5,16.1853 1511.5,17.0187 1529.5,18C 1530.94,18.2189 1532.27,18.7189 1533.5,19.5C 1524.04,20.7355 1514.71,21.7355 1505.5,22.5C 1488.17,23.011 1470.84,23.3443 1453.5,23.5C 1462.66,22.6701 1471.99,22.1701 1481.5,22C 1483.73,20.6007 1486.06,19.4341 1488.5,18.5C 1491.06,18.737 1491.06,19.237 1488.5,20C 1491.63,20.7901 1494.63,20.4568 1497.5,19C 1492.53,17.4184 1487.53,17.2518 1482.5,18.5C 1478.91,17.352 1475.24,16.6853 1471.5,16.5 Z"/></g>
<g><path style="opacity:1" fill="#01a48e" d="M 1446.5,14.5 C 1460.83,14.5 1475.17,14.5 1489.5,14.5C 1508.94,15.1833 1528.44,16.5166 1548,18.5C 1548.41,18.0426 1548.91,17.7093 1549.5,17.5C 1551.12,18.154 1552.78,18.654 1554.5,19C 1550.95,20.1737 1547.29,20.8404 1543.5,21C 1530.85,22.0143 1518.19,22.5143 1505.5,22.5C 1514.71,21.7355 1524.04,20.7355 1533.5,19.5C 1532.27,18.7189 1530.94,18.2189 1529.5,18C 1511.5,17.0187 1493.5,16.1853 1475.5,15.5C 1473.95,15.5108 1472.62,15.8442 1471.5,16.5C 1463.07,15.8607 1454.73,15.194 1446.5,14.5 Z"/></g>
<g><path style="opacity:1" fill="#019984" d="M 1489.5,14.5 C 1489.5,14.1667 1489.5,13.8333 1489.5,13.5C 1510.17,13.5879 1530.84,13.9212 1551.5,14.5C 1554.17,14.5 1556.83,14.5 1559.5,14.5C 1579.07,15.3309 1598.73,16.8309 1618.5,19C 1603.47,21.2612 1588.47,22.7612 1573.5,23.5C 1551.5,23.9095 1529.5,24.2428 1507.5,24.5C 1531.68,23.4518 1556.01,22.2851 1580.5,21C 1582.58,20.8078 1584.58,20.3078 1586.5,19.5C 1575.64,17.3009 1564.64,16.1343 1553.5,16C 1532.18,14.9868 1510.84,14.4868 1489.5,14.5 Z"/></g>
<g><path style="opacity:1" fill="#018674" d="M 1634.5,15.5 C 1651.6,15.3178 1668.6,16.4844 1685.5,19C 1684.33,19.5 1683.5,20.3333 1683,21.5C 1681.94,20.9032 1680.77,20.5698 1679.5,20.5C 1660.89,22.46 1642.22,23.46 1623.5,23.5C 1634.53,22.5954 1645.69,21.5954 1657,20.5C 1659.35,22.1894 1661.18,21.6894 1662.5,19C 1659.85,18.5477 1657.35,17.7143 1655,16.5C 1653.94,17.0968 1652.77,17.4302 1651.5,17.5C 1645.67,16.9712 1640,16.3046 1634.5,15.5 Z"/></g>
<g><path style="opacity:1" fill="#01806f" d="M 1605.5,13.5 C 1625.17,13.7689 1644.83,14.1022 1664.5,14.5C 1680.1,15.3106 1695.77,16.8106 1711.5,19C 1699.55,21.3722 1687.55,22.8722 1675.5,23.5C 1657.17,23.9444 1638.84,24.2777 1620.5,24.5C 1621.21,23.596 1622.21,23.2627 1623.5,23.5C 1642.22,23.46 1660.89,22.46 1679.5,20.5C 1680.77,20.5698 1681.94,20.9032 1683,21.5C 1683.5,20.3333 1684.33,19.5 1685.5,19C 1668.6,16.4844 1651.6,15.3178 1634.5,15.5C 1624.83,14.8333 1615.17,14.1667 1605.5,13.5 Z"/></g>
<g><path style="opacity:1" fill="#016e5f" d="M 1682.5,14.5 C 1682.5,14.1667 1682.5,13.8333 1682.5,13.5C 1694.91,13.6606 1707.24,13.6606 1719.5,13.5C 1719.83,13.5 1720.17,13.5 1720.5,13.5C 1732.7,14.6018 1745.03,15.6018 1757.5,16.5C 1758.61,15.9781 1759.77,15.6448 1761,15.5C 1765.03,16.784 1769.03,17.1173 1773,16.5C 1775.85,17.3455 1778.35,18.8455 1780.5,21C 1778.23,21.7581 1776.06,21.5914 1774,20.5C 1770.94,22.2292 1767.77,22.5625 1764.5,21.5C 1759.52,22.918 1754.52,23.2513 1749.5,22.5C 1722.23,24.2752 1694.89,25.2752 1667.5,25.5C 1677.17,24.8333 1686.83,24.1667 1696.5,23.5C 1697.17,23.5 1697.83,23.5 1698.5,23.5C 1716.4,23.4213 1734.23,22.4213 1752,20.5C 1755.01,21.5969 1757.51,20.7635 1759.5,18C 1736.19,16.0402 1712.52,14.8735 1688.5,14.5C 1686.5,14.5 1684.5,14.5 1682.5,14.5 Z"/></g>
<g><path style="opacity:1" fill="#01473d" d="M 1828.5,13.5 C 1828.5,13.1667 1828.5,12.8333 1828.5,12.5C 1862.77,12.7683 1896.77,14.6016 1930.5,18C 1931.62,18.2492 1932.62,18.7492 1933.5,19.5C 1928.93,20.8218 1924.26,21.6551 1919.5,22C 1902.35,23.2329 1885.35,24.3996 1868.5,25.5C 1850.84,26.0623 1833.17,26.3957 1815.5,26.5C 1815.5,26.1667 1815.5,25.8333 1815.5,25.5C 1824.68,25.8266 1833.68,25.4933 1842.5,24.5C 1864.61,24.5125 1886.61,23.0125 1908.5,20C 1908.83,19.6667 1909.17,19.3333 1909.5,19C 1890.97,15.887 1872.31,14.387 1853.5,14.5C 1845.13,14.7047 1836.8,14.3713 1828.5,13.5 Z"/></g>
<g><path style="opacity:1" fill="#014138" d="M 1798.5,11.5 C 1815.83,11.5 1833.17,11.5 1850.5,11.5C 1861.17,11.5 1871.83,11.5 1882.5,11.5C 1883.26,12.2679 1884.26,12.7679 1885.5,13C 1907.96,13.7705 1930.29,15.4372 1952.5,18C 1952.96,18.414 1953.29,18.914 1953.5,19.5C 1950.29,20.4394 1947.12,21.4394 1944,22.5C 1943.59,22.0426 1943.09,21.7093 1942.5,21.5C 1927.38,22.9623 1912.38,24.2956 1897.5,25.5C 1887.93,25.3532 1878.26,25.3532 1868.5,25.5C 1885.35,24.3996 1902.35,23.2329 1919.5,22C 1924.26,21.6551 1928.93,20.8218 1933.5,19.5C 1932.62,18.7492 1931.62,18.2492 1930.5,18C 1896.77,14.6016 1862.77,12.7683 1828.5,12.5C 1818.32,12.8274 1808.32,12.494 1798.5,11.5 Z"/></g>
<g><path style="opacity:1" fill="#011d19" d="M 2059.5,15.5 C 2069.66,15.3536 2079.66,16.5203 2089.5,19C 2088.38,20.0437 2087.04,20.7104 2085.5,21C 2075.55,22.4289 2065.55,23.2622 2055.5,23.5C 2062.61,22.8672 2069.61,21.3672 2076.5,19C 2070.78,17.4322 2065.11,16.2655 2059.5,15.5 Z"/></g>
<g><path style="opacity:1" fill="#011713" d="M 2087.5,15.5 C 2094.21,15.4477 2100.87,15.9477 2107.5,17C 2110.45,17.096 2113.12,17.9293 2115.5,19.5C 2108.81,21.3064 2102.14,22.6398 2095.5,23.5C 2095.17,23.5 2094.83,23.5 2094.5,23.5C 2090.83,23.5 2087.17,23.5 2083.5,23.5C 2090.88,22.7962 2098.21,21.2962 2105.5,19C 2099.43,17.5029 2093.43,16.3362 2087.5,15.5 Z"/></g>
<g><path style="opacity:1" fill="#01ac95" d="M 728.5,17.5 C 726.821,17.8923 725.154,18.3923 723.5,19C 723.833,19.3333 724.167,19.6667 724.5,20C 736.331,20.7263 747.997,21.5597 759.5,22.5C 746.496,22.6666 733.496,22.4999 720.5,22C 717.959,21.6191 715.626,20.7857 713.5,19.5C 709.438,20.8961 705.438,20.7294 701.5,19C 704.107,18.1816 706.774,17.6816 709.5,17.5C 715.943,17.2787 722.276,17.2787 728.5,17.5 Z"/></g>
<g><path style="opacity:1" fill="#01ac95" d="M 1445.5,14.5 C 1445.83,14.5 1446.17,14.5 1446.5,14.5C 1454.73,15.194 1463.07,15.8607 1471.5,16.5C 1475.24,16.6853 1478.91,17.352 1482.5,18.5C 1487.53,17.2518 1492.53,17.4184 1497.5,19C 1494.63,20.4568 1491.63,20.7901 1488.5,20C 1491.06,19.237 1491.06,18.737 1488.5,18.5C 1486.06,19.4341 1483.73,20.6007 1481.5,22C 1471.99,22.1701 1462.66,22.6701 1453.5,23.5C 1450.5,23.5 1447.5,23.5 1444.5,23.5C 1433.17,23.5 1421.83,23.5 1410.5,23.5C 1418.04,22.8037 1425.7,22.137 1433.5,21.5C 1447.53,22.5657 1461.53,21.8991 1475.5,19.5C 1474.27,18.7189 1472.94,18.2189 1471.5,18C 1457.67,17.3017 1444,16.4683 1430.5,15.5C 1435.69,15.8205 1440.69,15.4872 1445.5,14.5 Z"/></g>
<g><path style="opacity:1" fill="#017a6a" d="M 1664.5,14.5 C 1670.5,14.5 1676.5,14.5 1682.5,14.5C 1684.5,14.5 1686.5,14.5 1688.5,14.5C 1703.76,15.3335 1719.09,16.8335 1734.5,19C 1722.55,21.3722 1710.55,22.8722 1698.5,23.5C 1697.83,23.5 1697.17,23.5 1696.5,23.5C 1689.5,23.5 1682.5,23.5 1675.5,23.5C 1687.55,22.8722 1699.55,21.3722 1711.5,19C 1695.77,16.8106 1680.1,15.3106 1664.5,14.5 Z"/></g>
<g><path style="opacity:1" fill="#0fc0a8" d="M 1035.5,15.5 C 1035.5,15.8333 1035.5,16.1667 1035.5,16.5C 995.794,16.0443 956.128,16.8776 916.5,19C 917.5,19.3333 918.5,19.6667 919.5,20C 1019.82,22.2245 1120.15,23.0578 1220.5,22.5C 1141.33,23.6656 1062,23.8323 982.5,23C 941.237,22.9372 900.07,21.7706 859,19.5C 857.927,20.2797 856.76,20.113 855.5,19C 865.441,17.7709 875.441,17.1042 885.5,17C 935.492,15.7593 985.492,15.2593 1035.5,15.5 Z"/></g>
<g><path style="opacity:1" fill="#13c0a9" d="M 1035.5,16.5 C 1035.5,16.1667 1035.5,15.8333 1035.5,15.5C 1120.34,15.2282 1205.17,15.5615 1290,16.5C 1297.17,16.8333 1304.33,17.1667 1311.5,17.5C 1311.71,18.086 1312.04,18.586 1312.5,19C 1292.23,21.0354 1271.9,21.8688 1251.5,21.5C 1261.82,20.9764 1272.15,20.143 1282.5,19C 1261.87,17.5993 1241.2,17.0993 1220.5,17.5C 1160.84,16.5655 1101.17,16.2322 1041.5,16.5C 1039.5,16.5 1037.5,16.5 1035.5,16.5 Z"/></g>
<g><path style="opacity:1" fill="#2cc1ad" d="M 1041.5,16.5 C 1101.17,16.2322 1160.84,16.5655 1220.5,17.5C 1225.65,18.3267 1230.98,18.8267 1236.5,19C 1222.54,20.3421 1208.54,20.8421 1194.5,20.5C 1197.98,19.6773 1201.64,19.1773 1205.5,19C 1153.01,17.2792 1100.68,17.1126 1048.5,18.5C 1039.83,18.3336 1031.16,18.5002 1022.5,19C 1025.5,19.3333 1028.5,19.6667 1031.5,20C 1065.5,20.5 1099.5,20.6667 1133.5,20.5C 1152.17,20.5 1170.83,20.5 1189.5,20.5C 1116.99,21.8516 1044.33,21.685 971.5,20C 968.5,19.6667 965.5,19.3333 962.5,19C 967.5,18.6667 972.5,18.3333 977.5,18C 999.004,17.8319 1020.34,17.3319 1041.5,16.5 Z"/></g>
<g><path style="opacity:1" fill="#1dc0aa" d="M 1035.5,16.5 C 1037.5,16.5 1039.5,16.5 1041.5,16.5C 1020.34,17.3319 999.004,17.8319 977.5,18C 972.5,18.3333 967.5,18.6667 962.5,19C 965.5,19.3333 968.5,19.6667 971.5,20C 1044.33,21.685 1116.99,21.8516 1189.5,20.5C 1191.17,20.5 1192.83,20.5 1194.5,20.5C 1208.54,20.8421 1222.54,20.3421 1236.5,19C 1230.98,18.8267 1225.65,18.3267 1220.5,17.5C 1241.2,17.0993 1261.87,17.5993 1282.5,19C 1272.15,20.143 1261.82,20.9764 1251.5,21.5C 1241.19,22.2673 1230.85,22.6006 1220.5,22.5C 1120.15,23.0578 1019.82,22.2245 919.5,20C 918.5,19.6667 917.5,19.3333 916.5,19C 956.128,16.8776 995.794,16.0443 1035.5,16.5 Z"/></g>
<g><path style="opacity:1" fill="#36c1af" d="M 1048.5,18.5 C 1100.68,17.1126 1153.01,17.2792 1205.5,19C 1201.64,19.1773 1197.98,19.6773 1194.5,20.5C 1192.83,20.5 1191.17,20.5 1189.5,20.5C 1170.83,20.5 1152.17,20.5 1133.5,20.5C 1140.66,19.6712 1147.99,19.1712 1155.5,19C 1119.83,18.5 1084.17,18.3333 1048.5,18.5 Z"/></g>
<g><path style="opacity:1" fill="#40c2b1" d="M 1048.5,18.5 C 1084.17,18.3333 1119.83,18.5 1155.5,19C 1147.99,19.1712 1140.66,19.6712 1133.5,20.5C 1099.5,20.6667 1065.5,20.5 1031.5,20C 1028.5,19.6667 1025.5,19.3333 1022.5,19C 1031.16,18.5002 1039.83,18.3336 1048.5,18.5 Z"/></g>
<g><path style="opacity:1" fill="#014b41" d="M 362.5,24.5 C 391.001,25.2528 419.334,26.2528 447.5,27.5C 434.167,27.5 420.833,27.5 407.5,27.5C 403.5,27.5 399.5,27.5 395.5,27.5C 384.497,26.539 373.497,25.539 362.5,24.5 Z"/></g>
<g><path style="opacity:1" fill="#016a5c" d="M 478.5,23.5 C 505.8,25.1538 533.133,25.8204 560.5,25.5C 576.186,25.2838 591.852,25.6172 607.5,26.5C 614.5,27.1667 621.5,27.8333 628.5,28.5C 576.83,27.6733 525.163,26.6733 473.5,25.5C 466.352,24.5084 459.019,24.175 451.5,24.5C 451.5,24.1667 451.5,23.8333 451.5,23.5C 460.35,23.4041 469.35,23.4041 478.5,23.5 Z"/></g>
<g><path style="opacity:1" fill="#019481" d="M 675.5,24.5 C 747.164,25.4071 818.831,26.0737 890.5,26.5C 910.5,27.1667 930.5,27.8333 950.5,28.5C 899.167,28.5 847.833,28.5 796.5,28.5C 794.833,28.5 793.167,28.5 791.5,28.5C 791.5,27.8333 791.167,27.5 790.5,27.5C 752.163,26.6538 713.83,25.6538 675.5,24.5 Z"/></g>
<g><path style="opacity:1" fill="#01a993" d="M 741.5,15.5 C 738.5,16.1667 735.5,16.8333 732.5,17.5C 731.167,17.5 729.833,17.5 728.5,17.5C 722.276,17.2787 715.943,17.2787 709.5,17.5C 706.774,17.6816 704.107,18.1816 701.5,19C 705.438,20.7294 709.438,20.8961 713.5,19.5C 715.626,20.7857 717.959,21.6191 720.5,22C 733.496,22.4999 746.496,22.6666 759.5,22.5C 788.239,23.421 816.906,23.421 845.5,22.5C 848.728,23.4137 852.061,23.7471 855.5,23.5C 870.328,24.3313 885.328,24.8313 900.5,25C 1028,25.8327 1155.33,25.666 1282.5,24.5C 1284.5,24.5 1286.5,24.5 1288.5,24.5C 1329.17,24.3858 1369.84,24.0525 1410.5,23.5C 1421.83,23.5 1433.17,23.5 1444.5,23.5C 1434.17,24.1667 1423.83,24.8333 1413.5,25.5C 1239.17,26.3482 1064.83,26.6815 890.5,26.5C 825.714,25.4044 761.047,24.071 696.5,22.5C 686.3,21.6864 675.966,20.6864 665.5,19.5C 665.709,18.914 666.043,18.414 666.5,18C 691.482,16.6434 716.482,15.81 741.5,15.5 Z"/></g>
<g><path style="opacity:1" fill="#01b19a" d="M 855.5,23.5 C 872.833,23.5 890.167,23.5 907.5,23.5C 1032.49,24.4873 1157.49,24.8206 1282.5,24.5C 1155.33,25.666 1028,25.8327 900.5,25C 885.328,24.8313 870.328,24.3313 855.5,23.5 Z"/></g>
<g><path style="opacity:1" fill="#018f7c" d="M 1573.5,23.5 C 1580.83,23.5 1588.17,23.5 1595.5,23.5C 1595.5,23.8333 1595.5,24.1667 1595.5,24.5C 1559.5,25.0334 1523.5,25.7001 1487.5,26.5C 1463.5,26.9358 1439.5,27.2692 1415.5,27.5C 1402.5,27.5 1389.5,27.5 1376.5,27.5C 1402.17,26.8333 1427.83,26.1667 1453.5,25.5C 1471.53,25.7794 1489.53,25.4461 1507.5,24.5C 1529.5,24.2428 1551.5,23.9095 1573.5,23.5 Z"/></g>
<g><path style="opacity:1" fill="#011411" d="M 2083.5,23.5 C 2087.17,23.5 2090.83,23.5 2094.5,23.5C 2074,25.227 2053.33,26.5603 2032.5,27.5C 2025.5,27.5 2018.5,27.5 2011.5,27.5C 2011.5,27.1667 2011.5,26.8333 2011.5,26.5C 2012.5,26.5 2013.5,26.5 2014.5,26.5C 2037.52,25.9323 2060.52,24.9323 2083.5,23.5 Z"/></g>
<g><path style="opacity:1" fill="#011512" d="M 138.5,24.5 C 149.351,24.6573 160.017,25.324 170.5,26.5C 162.167,26.5 153.833,26.5 145.5,26.5C 143.167,25.8333 140.833,25.1667 138.5,24.5 Z"/></g>
<g><path style="opacity:1" fill="#01241f" d="M 278.5,26.5 C 289.752,27.4773 301.086,27.8106 312.5,27.5C 315.833,28.1667 319.167,28.8333 322.5,29.5C 301.828,29.44 281.161,29.1067 260.5,28.5C 241.678,27.2795 222.678,26.6128 203.5,26.5C 199.976,24.9965 196.31,23.9965 192.5,23.5C 194.401,23.5668 196.234,23.2335 198,22.5C 203.968,24.0631 209.635,24.3964 215,23.5C 235.95,25.4214 257.117,26.4214 278.5,26.5 Z"/></g>
<g><path style="opacity:1" fill="#01a18b" d="M 748.5,13.5 C 714.635,14.4251 680.635,15.9251 646.5,18C 645.833,18.3333 645.167,18.6667 644.5,19C 645.865,20.6819 647.365,20.8486 649,19.5C 664.702,21.6886 680.535,22.6886 696.5,22.5C 761.047,24.071 825.714,25.4044 890.5,26.5C 818.831,26.0737 747.164,25.4071 675.5,24.5C 674.167,24.5 672.833,24.5 671.5,24.5C 655.652,22.9072 639.652,21.5739 623.5,20.5C 622.914,20.7093 622.414,21.0426 622,21.5C 619.091,19.8917 616.258,19.2251 613.5,19.5C 617.634,17.8823 621.968,17.049 626.5,17C 640.665,16.2831 654.665,15.4498 668.5,14.5C 695.165,14.0455 721.831,13.7122 748.5,13.5 Z"/></g>
<g><path style="opacity:1" fill="#018170" d="M 1595.5,24.5 C 1603.17,24.5 1610.83,24.5 1618.5,24.5C 1610.83,25.1667 1603.17,25.8333 1595.5,26.5C 1592.5,26.5 1589.5,26.5 1586.5,26.5C 1553.5,26.638 1520.5,26.9713 1487.5,27.5C 1487.5,27.1667 1487.5,26.8333 1487.5,26.5C 1523.5,25.7001 1559.5,25.0334 1595.5,24.5 Z"/></g>
<g><path style="opacity:1" fill="#017666" d="M 1675.5,23.5 C 1682.5,23.5 1689.5,23.5 1696.5,23.5C 1686.83,24.1667 1677.17,24.8333 1667.5,25.5C 1666.17,25.5 1664.83,25.5 1663.5,25.5C 1640.83,25.8714 1618.17,26.2047 1595.5,26.5C 1603.17,25.8333 1610.83,25.1667 1618.5,24.5C 1619.17,24.5 1619.83,24.5 1620.5,24.5C 1638.84,24.2777 1657.17,23.9444 1675.5,23.5 Z"/></g>
<g><path style="opacity:1" fill="#014d43" d="M 1788.5,25.5 C 1797.5,25.5 1806.5,25.5 1815.5,25.5C 1815.5,25.8333 1815.5,26.1667 1815.5,26.5C 1801.86,27.4271 1788.2,27.7604 1774.5,27.5C 1769.5,27.5 1764.5,27.5 1759.5,27.5C 1759.5,27.1667 1759.5,26.8333 1759.5,26.5C 1768.99,25.5062 1778.65,25.1729 1788.5,25.5 Z"/></g>
<g><path style="opacity:1" fill="#013c34" d="M 1897.5,25.5 C 1887.83,26.1667 1878.17,26.8333 1868.5,27.5C 1851.52,28.3568 1834.52,28.6901 1817.5,28.5C 1797.17,28.9705 1776.84,29.3038 1756.5,29.5C 1762.5,28.8333 1768.5,28.1667 1774.5,27.5C 1788.2,27.7604 1801.86,27.4271 1815.5,26.5C 1833.17,26.3957 1850.84,26.0623 1868.5,25.5C 1878.26,25.3532 1887.93,25.3532 1897.5,25.5 Z"/></g>
<g><path style="opacity:1" fill="#012520" d="M 2010.5,23.5 C 2007.52,23.9016 2004.86,24.9016 2002.5,26.5C 1985.5,26.8077 1968.5,27.1411 1951.5,27.5C 1957.4,25.9723 1963.4,24.9723 1969.5,24.5C 1977.34,24.7108 1985.17,24.7108 1993,24.5C 1998.84,22.97 2004.67,22.6367 2010.5,23.5 Z"/></g>
<g><path style="opacity:1" fill="#011a17" d="M 134.5,24.5 C 134.5,24.1667 134.5,23.8333 134.5,23.5C 138.833,23.5 143.167,23.5 147.5,23.5C 166.195,24.0571 184.862,25.0571 203.5,26.5C 222.678,26.6128 241.678,27.2795 260.5,28.5C 257.5,28.5 254.5,28.5 251.5,28.5C 224.484,28.3883 197.484,27.7217 170.5,26.5C 160.017,25.324 149.351,24.6573 138.5,24.5C 137.167,24.5 135.833,24.5 134.5,24.5 Z"/></g>
<g><path style="opacity:1" fill="#013830" d="M 312.5,27.5 C 312.5,27.1667 312.5,26.8333 312.5,26.5C 327.5,26.5 342.5,26.5 357.5,26.5C 370.149,27.3216 382.815,27.6549 395.5,27.5C 399.5,27.5 403.5,27.5 407.5,27.5C 486.318,29.9911 565.318,31.3244 644.5,31.5C 679.167,32.1667 713.833,32.8333 748.5,33.5C 710.833,33.5 673.167,33.5 635.5,33.5C 634.5,33.5 633.5,33.5 632.5,33.5C 525.99,31.8092 419.324,29.8092 312.5,27.5 Z"/></g>
<g><path style="opacity:1" fill="#015d50" d="M 450.5,25.5 C 458.167,25.5 465.833,25.5 473.5,25.5C 525.163,26.6733 576.83,27.6733 628.5,28.5C 844.823,31.1438 1061.16,32.1438 1277.5,31.5C 1296.5,31.5 1315.5,31.5 1334.5,31.5C 1334.5,31.8333 1334.5,32.1667 1334.5,32.5C 1333.17,32.5 1331.83,32.5 1330.5,32.5C 1148.17,32.6667 965.833,32.5 783.5,32C 722.836,30.8922 662.17,30.0589 601.5,29.5C 597.833,29.5 594.167,29.5 590.5,29.5C 552.336,28.437 514.003,27.7703 475.5,27.5C 467.167,26.8333 458.833,26.1667 450.5,25.5 Z"/></g>
<g><path style="opacity:1" fill="#019d88" d="M 1413.5,25.5 C 1426.83,25.5 1440.17,25.5 1453.5,25.5C 1427.83,26.1667 1402.17,26.8333 1376.5,27.5C 1234.5,28.2386 1092.5,28.5719 950.5,28.5C 930.5,27.8333 910.5,27.1667 890.5,26.5C 1064.83,26.6815 1239.17,26.3482 1413.5,25.5 Z"/></g>
<g><path style="opacity:1" fill="#017767" d="M 1586.5,26.5 C 1586.5,26.8333 1586.5,27.1667 1586.5,27.5C 1557.5,27.5176 1528.5,27.851 1499.5,28.5C 1487.5,28.5 1475.5,28.5 1463.5,28.5C 1471.32,27.5076 1479.32,27.1743 1487.5,27.5C 1520.5,26.9713 1553.5,26.638 1586.5,26.5 Z"/></g>
<g><path style="opacity:1" fill="#016b5c" d="M 1663.5,25.5 C 1663.5,25.8333 1663.5,26.1667 1663.5,26.5C 1646.58,27.4851 1629.58,27.8184 1612.5,27.5C 1603.83,27.5 1595.17,27.5 1586.5,27.5C 1586.5,27.1667 1586.5,26.8333 1586.5,26.5C 1589.5,26.5 1592.5,26.5 1595.5,26.5C 1618.17,26.2047 1640.83,25.8714 1663.5,25.5 Z"/></g>
<g><path style="opacity:1" fill="#01453c" d="M 407.5,27.5 C 420.833,27.5 434.167,27.5 447.5,27.5C 452.833,27.5 458.167,27.5 463.5,27.5C 505.657,29.0507 547.99,29.7174 590.5,29.5C 594.167,29.5 597.833,29.5 601.5,29.5C 615.833,30.1667 630.167,30.8333 644.5,31.5C 565.318,31.3244 486.318,29.9911 407.5,27.5 Z"/></g>
<g><path style="opacity:1" fill="#015146" d="M 463.5,27.5 C 467.5,27.5 471.5,27.5 475.5,27.5C 514.003,27.7703 552.336,28.437 590.5,29.5C 547.99,29.7174 505.657,29.0507 463.5,27.5 Z"/></g>
<g><path style="opacity:1" fill="#016e60" d="M 607.5,26.5 C 668.828,27.6365 730.161,28.3032 791.5,28.5C 793.167,28.5 794.833,28.5 796.5,28.5C 842.997,29.4988 889.664,29.8321 936.5,29.5C 1050,30.4995 1163.67,30.8328 1277.5,30.5C 1277.5,30.8333 1277.5,31.1667 1277.5,31.5C 1061.16,32.1438 844.823,31.1438 628.5,28.5C 621.5,27.8333 614.5,27.1667 607.5,26.5 Z"/></g>
<g><path style="opacity:1" fill="#018270" d="M 1487.5,26.5 C 1487.5,26.8333 1487.5,27.1667 1487.5,27.5C 1479.32,27.1743 1471.32,27.5076 1463.5,28.5C 1447.5,28.5 1431.5,28.5 1415.5,28.5C 1415.5,28.1667 1415.5,27.8333 1415.5,27.5C 1439.5,27.2692 1463.5,26.9358 1487.5,26.5 Z"/></g>
<g><path style="opacity:1" fill="#015d50" d="M 1663.5,26.5 C 1676.17,26.5 1688.83,26.5 1701.5,26.5C 1706.83,26.5 1712.17,26.5 1717.5,26.5C 1703.17,27.1667 1688.83,27.8333 1674.5,28.5C 1672.83,28.5 1671.17,28.5 1669.5,28.5C 1623.83,28.8591 1578.16,29.5257 1532.5,30.5C 1524.17,30.5 1515.83,30.5 1507.5,30.5C 1507.5,30.1667 1507.5,29.8333 1507.5,29.5C 1542.67,29.3118 1577.67,28.6452 1612.5,27.5C 1629.58,27.8184 1646.58,27.4851 1663.5,26.5 Z"/></g>
<g><path style="opacity:1" fill="#015348" d="M 1717.5,26.5 C 1720.83,26.5 1724.17,26.5 1727.5,26.5C 1738.17,26.5 1748.83,26.5 1759.5,26.5C 1759.5,26.8333 1759.5,27.1667 1759.5,27.5C 1754.17,27.5 1748.83,27.5 1743.5,27.5C 1720.51,28.1443 1697.51,28.4776 1674.5,28.5C 1688.83,27.8333 1703.17,27.1667 1717.5,26.5 Z"/></g>
<g><path style="opacity:1" fill="#01453c" d="M 1743.5,27.5 C 1748.83,27.5 1754.17,27.5 1759.5,27.5C 1764.5,27.5 1769.5,27.5 1774.5,27.5C 1768.5,28.1667 1762.5,28.8333 1756.5,29.5C 1751.17,29.5 1745.83,29.5 1740.5,29.5C 1736.5,29.5 1732.5,29.5 1728.5,29.5C 1733.5,28.8333 1738.5,28.1667 1743.5,27.5 Z"/></g>
<g><path style="opacity:1" fill="#012a25" d="M 1969.5,24.5 C 1963.4,24.9723 1957.4,25.9723 1951.5,27.5C 1949.59,27.2155 1947.92,27.5489 1946.5,28.5C 1934.17,28.5 1921.83,28.5 1909.5,28.5C 1880.16,28.9002 1850.83,29.5669 1821.5,30.5C 1814.83,30.5 1808.17,30.5 1801.5,30.5C 1806.83,29.8333 1812.17,29.1667 1817.5,28.5C 1834.52,28.6901 1851.52,28.3568 1868.5,27.5C 1894.57,27.4501 1920.57,26.4501 1946.5,24.5C 1947.45,24.9867 1948.45,25.3201 1949.5,25.5C 1956.22,24.3399 1962.88,24.0065 1969.5,24.5 Z"/></g>
<g><path style="opacity:1" fill="#011b17" d="M 2002.5,26.5 C 2005.5,26.5 2008.5,26.5 2011.5,26.5C 2011.5,26.8333 2011.5,27.1667 2011.5,27.5C 1993.5,27.6614 1975.5,27.9948 1957.5,28.5C 1953.83,28.5 1950.17,28.5 1946.5,28.5C 1947.92,27.5489 1949.59,27.2155 1951.5,27.5C 1968.5,27.1411 1985.5,26.8077 2002.5,26.5 Z"/></g>
<g><path style="opacity:1" fill="#011814" d="M 251.5,28.5 C 254.5,28.5 257.5,28.5 260.5,28.5C 281.161,29.1067 301.828,29.44 322.5,29.5C 323.5,29.5 324.5,29.5 325.5,29.5C 334.5,30.1667 343.5,30.8333 352.5,31.5C 318.651,31.2527 284.984,30.2527 251.5,28.5 Z"/></g>
<g><path style="opacity:1" fill="#012b25" d="M 312.5,27.5 C 419.324,29.8092 525.99,31.8092 632.5,33.5C 530.157,32.9177 427.823,31.5844 325.5,29.5C 324.5,29.5 323.5,29.5 322.5,29.5C 319.167,28.8333 315.833,28.1667 312.5,27.5 Z"/></g>
<g><path style="opacity:1" fill="#018775" d="M 1376.5,27.5 C 1389.5,27.5 1402.5,27.5 1415.5,27.5C 1415.5,27.8333 1415.5,28.1667 1415.5,28.5C 1255.84,29.4223 1096.17,29.7556 936.5,29.5C 889.664,29.8321 842.997,29.4988 796.5,28.5C 847.833,28.5 899.167,28.5 950.5,28.5C 1092.5,28.5719 1234.5,28.2386 1376.5,27.5 Z"/></g>
<g><path style="opacity:1" fill="#01695b" d="M 1586.5,27.5 C 1595.17,27.5 1603.83,27.5 1612.5,27.5C 1577.67,28.6452 1542.67,29.3118 1507.5,29.5C 1504.83,29.5 1502.17,29.5 1499.5,29.5C 1499.5,29.1667 1499.5,28.8333 1499.5,28.5C 1528.5,27.851 1557.5,27.5176 1586.5,27.5 Z"/></g>
<g><path style="opacity:1" fill="#01493f" d="M 1743.5,27.5 C 1738.5,28.1667 1733.5,28.8333 1728.5,29.5C 1699.83,29.5425 1671.16,29.8758 1642.5,30.5C 1640.5,30.5 1638.5,30.5 1636.5,30.5C 1647.5,29.8333 1658.5,29.1667 1669.5,28.5C 1671.17,28.5 1672.83,28.5 1674.5,28.5C 1697.51,28.4776 1720.51,28.1443 1743.5,27.5 Z"/></g>
<g><path style="opacity:1" fill="#01110e" d="M 2011.5,27.5 C 2018.5,27.5 2025.5,27.5 2032.5,27.5C 2032.5,27.8333 2032.5,28.1667 2032.5,28.5C 2001.83,28.8966 1971.16,29.5632 1940.5,30.5C 1933.5,30.5 1926.5,30.5 1919.5,30.5C 1932.17,29.8333 1944.83,29.1667 1957.5,28.5C 1975.5,27.9948 1993.5,27.6614 2011.5,27.5 Z"/></g>
<g><path style="opacity:1" fill="#010e0c" d="M 145.5,26.5 C 153.833,26.5 162.167,26.5 170.5,26.5C 197.484,27.7217 224.484,28.3883 251.5,28.5C 284.984,30.2527 318.651,31.2527 352.5,31.5C 358.833,31.5 365.167,31.5 371.5,31.5C 371.5,31.8333 371.5,32.1667 371.5,32.5C 310.489,31.9581 249.489,30.7914 188.5,29C 173.961,28.9629 159.628,28.1295 145.5,26.5 Z"/></g>
<g><path style="opacity:1" fill="#017363" d="M 1415.5,28.5 C 1431.5,28.5 1447.5,28.5 1463.5,28.5C 1475.5,28.5 1487.5,28.5 1499.5,28.5C 1499.5,28.8333 1499.5,29.1667 1499.5,29.5C 1425.5,30.0013 1351.5,30.3346 1277.5,30.5C 1163.67,30.8328 1050,30.4995 936.5,29.5C 1096.17,29.7556 1255.84,29.4223 1415.5,28.5 Z"/></g>
<g><path style="opacity:1" fill="#015045" d="M 1669.5,28.5 C 1658.5,29.1667 1647.5,29.8333 1636.5,30.5C 1601.83,30.4766 1567.16,30.8099 1532.5,31.5C 1532.5,31.1667 1532.5,30.8333 1532.5,30.5C 1578.16,29.5257 1623.83,28.8591 1669.5,28.5 Z"/></g>
<g><path style="opacity:1" fill="#01312b" d="M 1817.5,28.5 C 1812.17,29.1667 1806.83,29.8333 1801.5,30.5C 1751.16,30.9839 1700.83,31.6506 1650.5,32.5C 1680.49,31.1838 1710.49,30.1838 1740.5,29.5C 1745.83,29.5 1751.17,29.5 1756.5,29.5C 1776.84,29.3038 1797.17,28.9705 1817.5,28.5 Z"/></g>
<g><path style="opacity:1" fill="#011f1b" d="M 1909.5,28.5 C 1901.17,29.1667 1892.83,29.8333 1884.5,30.5C 1863.5,30.9999 1842.5,31.3332 1821.5,31.5C 1821.5,31.1667 1821.5,30.8333 1821.5,30.5C 1850.83,29.5669 1880.16,28.9002 1909.5,28.5 Z"/></g>
<g><path style="opacity:1" fill="#011815" d="M 1909.5,28.5 C 1921.83,28.5 1934.17,28.5 1946.5,28.5C 1950.17,28.5 1953.83,28.5 1957.5,28.5C 1944.83,29.1667 1932.17,29.8333 1919.5,30.5C 1909.17,30.5 1898.83,30.5 1888.5,30.5C 1887.17,30.5 1885.83,30.5 1884.5,30.5C 1892.83,29.8333 1901.17,29.1667 1909.5,28.5 Z"/></g>
<g><path style="opacity:1" fill="#011e1a" d="M 325.5,29.5 C 427.823,31.5844 530.157,32.9177 632.5,33.5C 633.5,33.5 634.5,33.5 635.5,33.5C 674.665,34.3326 713.998,34.8326 753.5,35C 964.5,35.5 1175.5,35.6667 1386.5,35.5C 1406.5,35.5 1426.5,35.5 1446.5,35.5C 1233.67,36.4997 1020.67,36.8331 807.5,36.5C 736.498,36.5207 665.498,36.1873 594.5,35.5C 554.004,34.3234 513.338,33.6568 472.5,33.5C 470.833,33.5 469.167,33.5 467.5,33.5C 435.669,32.4697 403.669,31.803 371.5,31.5C 365.167,31.5 358.833,31.5 352.5,31.5C 343.5,30.8333 334.5,30.1667 325.5,29.5 Z"/></g>
<g><path style="opacity:1" fill="#014d43" d="M 601.5,29.5 C 662.17,30.0589 722.836,30.8922 783.5,32C 965.833,32.5 1148.17,32.6667 1330.5,32.5C 1163.67,33.4997 996.667,33.833 829.5,33.5C 802.5,33.5 775.5,33.5 748.5,33.5C 713.833,32.8333 679.167,32.1667 644.5,31.5C 630.167,30.8333 615.833,30.1667 601.5,29.5 Z"/></g>
<g><path style="opacity:1" fill="#016356" d="M 1499.5,29.5 C 1502.17,29.5 1504.83,29.5 1507.5,29.5C 1507.5,29.8333 1507.5,30.1667 1507.5,30.5C 1449.83,30.714 1392.17,31.0474 1334.5,31.5C 1315.5,31.5 1296.5,31.5 1277.5,31.5C 1277.5,31.1667 1277.5,30.8333 1277.5,30.5C 1351.5,30.3346 1425.5,30.0013 1499.5,29.5 Z"/></g>
<g><path style="opacity:1" fill="#013a33" d="M 1728.5,29.5 C 1732.5,29.5 1736.5,29.5 1740.5,29.5C 1710.49,30.1838 1680.49,31.1838 1650.5,32.5C 1637.17,32.5 1623.83,32.5 1610.5,32.5C 1597.83,32.5 1585.17,32.5 1572.5,32.5C 1595.83,31.8333 1619.17,31.1667 1642.5,30.5C 1671.16,29.8758 1699.83,29.5425 1728.5,29.5 Z"/></g>
<g><path style="opacity:1" fill="#015549" d="M 1507.5,30.5 C 1515.83,30.5 1524.17,30.5 1532.5,30.5C 1532.5,30.8333 1532.5,31.1667 1532.5,31.5C 1466.5,31.7571 1400.5,32.0905 1334.5,32.5C 1334.5,32.1667 1334.5,31.8333 1334.5,31.5C 1392.17,31.0474 1449.83,30.714 1507.5,30.5 Z"/></g>
<g><path style="opacity:1" fill="#014138" d="M 1636.5,30.5 C 1638.5,30.5 1640.5,30.5 1642.5,30.5C 1619.17,31.1667 1595.83,31.8333 1572.5,32.5C 1509.33,32.3347 1446.33,33.0014 1383.5,34.5C 1198.67,34.833 1014,34.4997 829.5,33.5C 996.667,33.833 1163.67,33.4997 1330.5,32.5C 1331.83,32.5 1333.17,32.5 1334.5,32.5C 1400.5,32.0905 1466.5,31.7571 1532.5,31.5C 1567.16,30.8099 1601.83,30.4766 1636.5,30.5 Z"/></g>
<g><path style="opacity:1" fill="#01241f" d="M 1801.5,30.5 C 1808.17,30.5 1814.83,30.5 1821.5,30.5C 1821.5,30.8333 1821.5,31.1667 1821.5,31.5C 1816.17,31.5 1810.83,31.5 1805.5,31.5C 1769.66,31.7706 1734,32.4372 1698.5,33.5C 1635.33,33.6233 1572.33,34.2899 1509.5,35.5C 1488.5,35.5 1467.5,35.5 1446.5,35.5C 1426.5,35.5 1406.5,35.5 1386.5,35.5C 1386.5,35.1667 1386.5,34.8333 1386.5,34.5C 1461.34,34.5979 1536,33.9312 1610.5,32.5C 1623.83,32.5 1637.17,32.5 1650.5,32.5C 1700.83,31.6506 1751.16,30.9839 1801.5,30.5 Z"/></g>
<g><path style="opacity:1" fill="#011210" d="M 1884.5,30.5 C 1885.83,30.5 1887.17,30.5 1888.5,30.5C 1880.83,31.1667 1873.17,31.8333 1865.5,32.5C 1837.17,33.1547 1808.84,33.488 1780.5,33.5C 1788.83,32.8333 1797.17,32.1667 1805.5,31.5C 1810.83,31.5 1816.17,31.5 1821.5,31.5C 1842.5,31.3332 1863.5,30.9999 1884.5,30.5 Z"/></g>
<g><path style="opacity:1" fill="#010a09" d="M 1888.5,30.5 C 1898.83,30.5 1909.17,30.5 1919.5,30.5C 1926.5,30.5 1933.5,30.5 1940.5,30.5C 1915.67,31.608 1890.67,32.2747 1865.5,32.5C 1873.17,31.8333 1880.83,31.1667 1888.5,30.5 Z"/></g>
<g><path style="opacity:1" fill="#01110f" d="M 371.5,32.5 C 371.5,32.1667 371.5,31.8333 371.5,31.5C 403.669,31.803 435.669,32.4697 467.5,33.5C 435.475,33.8041 403.475,33.4707 371.5,32.5 Z"/></g>
<g><path style="opacity:1" fill="#011815" d="M 1805.5,31.5 C 1797.17,32.1667 1788.83,32.8333 1780.5,33.5C 1756.17,33.5 1731.83,33.5 1707.5,33.5C 1704.5,33.5 1701.5,33.5 1698.5,33.5C 1734,32.4372 1769.66,31.7706 1805.5,31.5 Z"/></g>
<g><path style="opacity:1" fill="#01322b" d="M 1572.5,32.5 C 1585.17,32.5 1597.83,32.5 1610.5,32.5C 1536,33.9312 1461.34,34.5979 1386.5,34.5C 1385.5,34.5 1384.5,34.5 1383.5,34.5C 1446.33,33.0014 1509.33,32.3347 1572.5,32.5 Z"/></g>
<g><path style="opacity:1" fill="#010d0b" d="M 472.5,33.5 C 513.338,33.6568 554.004,34.3234 594.5,35.5C 553.655,35.8151 512.988,35.1484 472.5,33.5 Z"/></g>
<g><path style="opacity:1" fill="#012f29" d="M 635.5,33.5 C 673.167,33.5 710.833,33.5 748.5,33.5C 775.5,33.5 802.5,33.5 829.5,33.5C 1014,34.4997 1198.67,34.833 1383.5,34.5C 1384.5,34.5 1385.5,34.5 1386.5,34.5C 1386.5,34.8333 1386.5,35.1667 1386.5,35.5C 1175.5,35.6667 964.5,35.5 753.5,35C 713.998,34.8326 674.665,34.3326 635.5,33.5 Z"/></g>
<g><path style="opacity:1" fill="#011814" d="M 1698.5,33.5 C 1701.5,33.5 1704.5,33.5 1707.5,33.5C 1671.33,34.3345 1635,35.0011 1598.5,35.5C 1568.83,35.5 1539.17,35.5 1509.5,35.5C 1572.33,34.2899 1635.33,33.6233 1698.5,33.5 Z"/></g>
<g><path style="opacity:1" fill="#010f0d" d="M 1446.5,35.5 C 1467.5,35.5 1488.5,35.5 1509.5,35.5C 1539.17,35.5 1568.83,35.5 1598.5,35.5C 1445.67,37.0394 1292.67,37.706 1139.5,37.5C 1028.67,37.5 917.999,37.1667 807.5,36.5C 1020.67,36.8331 1233.67,36.4997 1446.5,35.5 Z"/></g>
</svg>
