<?xml version="1.0" encoding="UTF-8"?>
<!DOCTYPE svg PUBLIC "-//W3C//DTD SVG 1.1//EN" "http://www.w3.org/Graphics/SVG/1.1/DTD/svg11.dtd">
<svg xmlns="http://www.w3.org/2000/svg" version="1.1" width="1480px" height="118px" style="shape-rendering:geometricPrecision; text-rendering:geometricPrecision; image-rendering:optimizeQuality; fill-rule:evenodd; clip-rule:evenodd" xmlns:xlink="http://www.w3.org/1999/xlink">
<g><path style="opacity:0.958" fill="#f9fafb" d="M 612.5,-0.5 C 621.167,-0.5 629.833,-0.5 638.5,-0.5C 686.607,5.61966 705.107,32.6197 694,80.5C 688.952,95.882 678.786,106.382 663.5,112C 655.172,114.492 646.838,116.325 638.5,117.5C 629.833,117.5 621.167,117.5 612.5,117.5C 565.965,112.074 547.132,86.0742 556,39.5C 559.694,24.4734 568.527,13.6401 582.5,7C 592.314,3.21305 602.314,0.713054 612.5,-0.5 Z M 611.5,25.5 C 622.555,25.1209 633.555,25.6209 644.5,27C 656.342,29.5089 663.509,36.6756 666,48.5C 670.246,79.4225 656.746,93.7558 625.5,91.5C 590.814,91.9584 577.981,75.2917 587,41.5C 592.632,32.2685 600.798,26.9352 611.5,25.5 Z"/></g>
<g><path style="opacity:0.984" fill="#f9fafb" d="M 289.5,1.5 C 329.5,1.5 369.5,1.5 409.5,1.5C 409.5,9.83333 409.5,18.1667 409.5,26.5C 379.167,26.5 348.833,26.5 318.5,26.5C 318.5,36.1667 318.5,45.8333 318.5,55.5C 345.5,55.5 372.5,55.5 399.5,55.5C 399.5,63.8333 399.5,72.1667 399.5,80.5C 372.5,80.5 345.5,80.5 318.5,80.5C 318.5,92.5 318.5,104.5 318.5,116.5C 308.833,116.5 299.167,116.5 289.5,116.5C 289.5,78.1667 289.5,39.8333 289.5,1.5 Z"/></g>
<g><path style="opacity:0.988" fill="#f9fafb" d="M 426.5,1.5 C 436.167,1.5 445.833,1.5 455.5,1.5C 455.5,31.1667 455.5,60.8333 455.5,90.5C 484.833,90.5 514.167,90.5 543.5,90.5C 543.5,98.8333 543.5,107.167 543.5,115.5C 504.5,115.5 465.5,115.5 426.5,115.5C 426.5,77.5 426.5,39.5 426.5,1.5 Z"/></g>
<g><path style="opacity:0.962" fill="#f9fafb" d="M 700.5,1.5 C 711.415,1.17966 722.248,1.51299 733,2.5C 743.667,31.1667 754.333,59.8333 765,88.5C 777.186,59.7758 788.686,30.7758 799.5,1.5C 812.167,1.5 824.833,1.5 837.5,1.5C 848.703,30.9133 860.203,60.2466 872,89.5C 882.735,60.4613 893.568,31.4613 904.5,2.5C 915.485,1.33425 926.485,1.16758 937.5,2C 922.142,39.577 907.475,77.4103 893.5,115.5C 879.255,115.824 865.088,115.49 851,114.5C 840.333,87.1667 829.667,59.8333 819,32.5C 807.48,59.8923 796.647,87.559 786.5,115.5C 772.255,115.824 758.088,115.49 744,114.5C 728.999,76.9937 714.499,39.327 700.5,1.5 Z"/></g>
<g><path style="opacity:0.983" fill="#f9fafb" d="M 1038.5,1.5 C 1052.18,1.16746 1065.85,1.50079 1079.5,2.5C 1104.85,30.017 1130.02,57.6837 1155,85.5C 1155.5,57.502 1155.67,29.502 1155.5,1.5C 1165.17,1.5 1174.83,1.5 1184.5,1.5C 1184.5,39.5 1184.5,77.5 1184.5,115.5C 1170.83,115.667 1157.16,115.5 1143.5,115C 1118.33,87.1667 1093.17,59.3333 1068,31.5C 1067.5,59.498 1067.33,87.498 1067.5,115.5C 1057.83,115.5 1048.17,115.5 1038.5,115.5C 1038.5,77.5 1038.5,39.5 1038.5,1.5 Z"/></g>
<g><path style="opacity:0.984" fill="#f9fafb" d="M 1205.5,1.5 C 1245.5,1.5 1285.5,1.5 1325.5,1.5C 1325.5,9.83333 1325.5,18.1667 1325.5,26.5C 1295.17,26.5 1264.83,26.5 1234.5,26.5C 1234.5,36.1667 1234.5,45.8333 1234.5,55.5C 1261.5,55.5 1288.5,55.5 1315.5,55.5C 1315.5,63.8333 1315.5,72.1667 1315.5,80.5C 1288.5,80.5 1261.5,80.5 1234.5,80.5C 1234.5,92.5 1234.5,104.5 1234.5,116.5C 1224.83,116.5 1215.17,116.5 1205.5,116.5C 1205.5,78.1667 1205.5,39.8333 1205.5,1.5 Z"/></g>
<g><path style="opacity:0.985" fill="#f9fafb" d="M 1479.5,1.5 C 1479.5,9.83333 1479.5,18.1667 1479.5,26.5C 1461.17,26.5 1442.83,26.5 1424.5,26.5C 1424.5,56.5 1424.5,86.5 1424.5,116.5C 1414.83,116.5 1405.17,116.5 1395.5,116.5C 1395.5,86.5 1395.5,56.5 1395.5,26.5C 1377.17,26.5 1358.83,26.5 1340.5,26.5C 1340.5,18.1667 1340.5,9.83333 1340.5,1.5C 1386.83,1.5 1433.17,1.5 1479.5,1.5 Z"/></g>
<g><path style="opacity:0.958" fill="#f9fafb" d="M 215.5,117.5 C 207.5,117.5 199.5,117.5 191.5,117.5C 145.309,111.792 129.476,86.7915 144,42.5C 150.856,32.1407 160.356,25.3073 172.5,22C 188.661,18.6317 204.995,17.6317 221.5,19C 253.905,23.3098 269.905,41.8098 269.5,74.5C 235.493,74.1668 201.493,74.5001 167.5,75.5C 171.523,86.0119 179.189,91.8453 190.5,93C 199.5,93.6667 208.5,93.6667 217.5,93C 226.644,92.0989 233.977,88.0989 239.5,81C 249.161,80.5002 258.828,80.3335 268.5,80.5C 264.091,97.4091 253.425,108.242 236.5,113C 229.43,114.845 222.43,116.345 215.5,117.5 Z M 203.5,39.5 C 213.318,39.4541 222.652,41.6208 231.5,46C 234.888,48.7859 237.554,52.1193 239.5,56C 215.833,56.6667 192.167,56.6667 168.5,56C 170.573,50.5065 174.24,46.5065 179.5,44C 187.438,41.4171 195.438,39.9171 203.5,39.5 Z"/></g>
<g><path style="opacity:0.951" fill="#f9fafb" d="M -0.5,19.5 C 10.1874,19.168 20.8541,19.5013 31.5,20.5C 43.1394,45.1122 55.3061,69.4455 68,93.5C 79.8333,69.1667 91.6667,44.8333 103.5,20.5C 114.146,19.5013 124.813,19.168 135.5,19.5C 119.971,51.5593 104.137,83.5593 88,115.5C 81.2437,116.158 74.4103,116.491 67.5,116.5C 60.5897,116.491 53.7563,116.158 47,115.5C 31.3922,83.9502 15.5589,52.6169 -0.5,21.5C -0.5,20.8333 -0.5,20.1667 -0.5,19.5 Z"/></g>
</svg>
