<?xml version="1.0" encoding="UTF-8"?>
<!DOCTYPE svg PUBLIC "-//W3C//DTD SVG 1.1//EN" "http://www.w3.org/Graphics/SVG/1.1/DTD/svg11.dtd">
<svg xmlns="http://www.w3.org/2000/svg" version="1.1" width="1000px" height="86px" style="shape-rendering:geometricPrecision; text-rendering:geometricPrecision; image-rendering:optimizeQuality; fill-rule:evenodd; clip-rule:evenodd" xmlns:xlink="http://www.w3.org/1999/xlink">
<g><path style="opacity:0.936" fill="#00e8c9" d="M -0.5,-0.5 C 7.16667,-0.5 14.8333,-0.5 22.5,-0.5C 33.744,19.9274 45.244,40.2607 57,60.5C 69.3615,40.4395 81.1948,20.1061 92.5,-0.5C 100.167,-0.5 107.833,-0.5 115.5,-0.5C 99.1667,28.1667 82.8333,56.8333 66.5,85.5C 60.5,85.5 54.5,85.5 48.5,85.5C 32.6564,57.1365 16.3231,29.1365 -0.5,1.5C -0.5,0.833333 -0.5,0.166667 -0.5,-0.5 Z"/></g>
<g><path style="opacity:0.939" fill="#00e8c9" d="M 121.5,-0.5 C 148.5,-0.5 175.5,-0.5 202.5,-0.5C 202.5,6.16667 202.5,12.8333 202.5,19.5C 182.167,19.5 161.833,19.5 141.5,19.5C 141.5,23.8333 141.5,28.1667 141.5,32.5C 157.833,32.5 174.167,32.5 190.5,32.5C 190.5,39.1667 190.5,45.8333 190.5,52.5C 174.167,52.5 157.833,52.5 141.5,52.5C 141.5,57.1667 141.5,61.8333 141.5,66.5C 161.833,66.5 182.167,66.5 202.5,66.5C 202.5,72.8333 202.5,79.1667 202.5,85.5C 175.5,85.5 148.5,85.5 121.5,85.5C 121.5,56.8333 121.5,28.1667 121.5,-0.5 Z"/></g>
<g><path style="opacity:0.967" fill="#00e8c9" d="M 213.5,-0.5 C 219.833,-0.5 226.167,-0.5 232.5,-0.5C 232.5,21.8333 232.5,44.1667 232.5,66.5C 255.167,66.5 277.833,66.5 300.5,66.5C 300.5,72.8333 300.5,79.1667 300.5,85.5C 271.5,85.5 242.5,85.5 213.5,85.5C 213.5,56.8333 213.5,28.1667 213.5,-0.5 Z"/></g>
<g><path style="opacity:0.943" fill="#00e8c9" d="M 318.5,-0.5 C 338.833,-0.5 359.167,-0.5 379.5,-0.5C 385.064,1.89468 389.231,5.89468 392,11.5C 392.667,32.1667 392.667,52.8333 392,73.5C 390.064,78.9322 386.564,82.9322 381.5,85.5C 360.167,85.5 338.833,85.5 317.5,85.5C 311.706,82.5309 307.873,77.8642 306,71.5C 305.833,62 305.667,52.5 305.5,43C 305.38,32.1115 305.88,21.2782 307,10.5C 309.495,5.353 313.329,1.68634 318.5,-0.5 Z M 325.5,19.5 C 341.167,19.5 356.833,19.5 372.5,19.5C 372.5,35.1667 372.5,50.8333 372.5,66.5C 356.833,66.5 341.167,66.5 325.5,66.5C 325.5,50.8333 325.5,35.1667 325.5,19.5 Z"/></g>
<g><path style="opacity:0.943" fill="#00e8c9" d="M 418.5,-0.5 C 442.833,-0.5 467.167,-0.5 491.5,-0.5C 491.5,6.16667 491.5,12.8333 491.5,19.5C 469.497,19.3334 447.497,19.5 425.5,20C 424.173,35.1369 424.173,50.3036 425.5,65.5C 447.49,66.4997 469.49,66.833 491.5,66.5C 491.5,72.8333 491.5,79.1667 491.5,85.5C 466.5,85.5 441.5,85.5 416.5,85.5C 410.261,82.4177 406.427,77.4177 405,70.5C 404.333,52.1667 404.333,33.8333 405,15.5C 406.505,7.50528 411.005,2.17195 418.5,-0.5 Z"/></g>
<g><path style="opacity:0.957" fill="#00e8c9" d="M 500.5,-0.5 C 506.833,-0.5 513.167,-0.5 519.5,-0.5C 519.5,28.1667 519.5,56.8333 519.5,85.5C 513.167,85.5 506.833,85.5 500.5,85.5C 500.5,56.8333 500.5,28.1667 500.5,-0.5 Z"/></g>
<g><path style="opacity:0.938" fill="#00e8c9" d="M 528.5,-0.5 C 535.5,-0.5 542.5,-0.5 549.5,-0.5C 558.409,11.0861 567.743,22.4194 577.5,33.5C 587.234,22.4386 596.568,11.1053 605.5,-0.5C 612.5,-0.5 619.5,-0.5 626.5,-0.5C 626.5,28.1667 626.5,56.8333 626.5,85.5C 619.833,85.5 613.167,85.5 606.5,85.5C 606.667,67.1636 606.5,48.8303 606,30.5C 596.963,41.9136 587.463,52.9136 577.5,63.5C 567.469,52.9679 557.969,41.9679 549,30.5C 548.5,48.8303 548.333,67.1636 548.5,85.5C 541.833,85.5 535.167,85.5 528.5,85.5C 528.5,56.8333 528.5,28.1667 528.5,-0.5 Z"/></g>
<g><path style="opacity:0.939" fill="#00e8c9" d="M 639.5,-0.5 C 666.5,-0.5 693.5,-0.5 720.5,-0.5C 720.5,6.16667 720.5,12.8333 720.5,19.5C 700.167,19.5 679.833,19.5 659.5,19.5C 659.5,23.8333 659.5,28.1667 659.5,32.5C 675.833,32.5 692.167,32.5 708.5,32.5C 708.5,39.1667 708.5,45.8333 708.5,52.5C 692.167,52.5 675.833,52.5 659.5,52.5C 659.5,57.1667 659.5,61.8333 659.5,66.5C 679.833,66.5 700.167,66.5 720.5,66.5C 720.5,72.8333 720.5,79.1667 720.5,85.5C 693.5,85.5 666.5,85.5 639.5,85.5C 639.5,56.8333 639.5,28.1667 639.5,-0.5 Z"/></g>
<g><path style="opacity:0.933" fill="#00e8c9" d="M 726.5,-0.5 C 755.5,-0.5 784.5,-0.5 813.5,-0.5C 813.5,6.16667 813.5,12.8333 813.5,19.5C 802.5,19.5 791.5,19.5 780.5,19.5C 780.5,41.5 780.5,63.5 780.5,85.5C 773.833,85.5 767.167,85.5 760.5,85.5C 760.5,63.5 760.5,41.5 760.5,19.5C 749.167,19.5 737.833,19.5 726.5,19.5C 726.5,12.8333 726.5,6.16667 726.5,-0.5 Z"/></g>
<g><path style="opacity:0.939" fill="#00e8c9" d="M 821.5,-0.5 C 848.5,-0.5 875.5,-0.5 902.5,-0.5C 902.5,6.16667 902.5,12.8333 902.5,19.5C 882.167,19.5 861.833,19.5 841.5,19.5C 841.5,23.8333 841.5,28.1667 841.5,32.5C 857.833,32.5 874.167,32.5 890.5,32.5C 890.5,39.1667 890.5,45.8333 890.5,52.5C 874.167,52.5 857.833,52.5 841.5,52.5C 841.5,57.1667 841.5,61.8333 841.5,66.5C 861.833,66.5 882.167,66.5 902.5,66.5C 902.5,72.8333 902.5,79.1667 902.5,85.5C 875.5,85.5 848.5,85.5 821.5,85.5C 821.5,56.8333 821.5,28.1667 821.5,-0.5 Z"/></g>
<g><path style="opacity:0.94" fill="#00e8c9" d="M 912.5,-0.5 C 937.167,-0.5 961.833,-0.5 986.5,-0.5C 992.089,2.08671 996.422,6.08671 999.5,11.5C 999.5,23.1667 999.5,34.8333 999.5,46.5C 995.946,53.0564 990.613,57.3897 983.5,59.5C 988.513,65.8429 993.846,71.8429 999.5,77.5C 999.5,80.1667 999.5,82.8333 999.5,85.5C 992.833,85.5 986.167,85.5 979.5,85.5C 972.175,76.8644 964.841,68.1978 957.5,59.5C 949.193,58.5021 940.86,58.1688 932.5,58.5C 932.5,67.5 932.5,76.5 932.5,85.5C 925.833,85.5 919.167,85.5 912.5,85.5C 912.5,56.8333 912.5,28.1667 912.5,-0.5 Z M 932.5,19.5 C 948.5,19.5 964.5,19.5 980.5,19.5C 980.5,25.8333 980.5,32.1667 980.5,38.5C 964.5,38.5 948.5,38.5 932.5,38.5C 932.5,32.1667 932.5,25.8333 932.5,19.5 Z"/></g>
</svg>
